<?xml version="1.0" encoding="UTF-8" standalone="no"?>
<svg
   xmlns:dc="http://purl.org/dc/elements/1.1/"
   xmlns:cc="http://creativecommons.org/ns#"
   xmlns:rdf="http://www.w3.org/1999/02/22-rdf-syntax-ns#"
   xmlns:svg="http://www.w3.org/2000/svg"
   xmlns="http://www.w3.org/2000/svg"
   xmlns:sodipodi="http://sodipodi.sourceforge.net/DTD/sodipodi-0.dtd"
   xmlns:inkscape="http://www.inkscape.org/namespaces/inkscape"
   inkscape:version="1.0.1 (3bc2e813f5, 2020-09-07)"
   sodipodi:docname="logo.svg"
   id="svg8"
   version="1.1"
   viewBox="0 0 28.575019 7.4083338"
   height="28"
   width="108">
  <defs
     id="defs2" />
  <sodipodi:namedview
     units="px"
     inkscape:window-maximized="0"
     inkscape:window-y="365"
     inkscape:window-x="1444"
     inkscape:window-height="1731"
     inkscape:window-width="2309"
     showgrid="false"
     inkscape:document-rotation="0"
     inkscape:current-layer="g4355"
     inkscape:document-units="mm"
     inkscape:cy="39.079656"
     inkscape:cx="42.699484"
     inkscape:zoom="5.6568542"
     inkscape:pageshadow="2"
     inkscape:pageopacity="0.0"
     borderopacity="1.0"
     bordercolor="#666666"
     pagecolor="#ffffff"
     id="base"
     inkscape:snap-text-baseline="false" />
  <metadata
     id="metadata5">
    <rdf:RDF>
      <cc:Work
         rdf:about="">
        <dc:format>image/svg+xml</dc:format>
        <dc:type
           rdf:resource="http://purl.org/dc/dcmitype/StillImage" />
        <dc:title />
      </cc:Work>
    </rdf:RDF>
  </metadata>
  <g
     inkscape:groupmode="layer"
     id="g4365"
     inkscape:label="TEXT"
     style="display:none">
    <text
       xml:space="preserve"
       style="font-style:normal;font-variant:normal;font-weight:normal;font-stretch:normal;font-size:12.3473px;line-height:1.25;font-family:Gabriola;-inkscape-font-specification:'Gabriola, Normal';font-variant-ligatures:normal;font-variant-caps:normal;font-variant-numeric:normal;font-variant-east-asian:normal;fill:#343434;fill-opacity:1;stroke:none;stroke-width:0.264584"
       x="0.38157448"
       y="7.1660786"
       id="text4363"><tspan
         sodipodi:role="line"
         id="tspan4361"
         x="0.38157448"
         y="7.1660786"
         style="font-style:normal;font-variant:normal;font-weight:normal;font-stretch:normal;font-size:12.3473px;font-family:Gabriola;-inkscape-font-specification:'Gabriola, Normal';font-variant-ligatures:normal;font-variant-caps:normal;font-variant-numeric:normal;font-variant-east-asian:normal;fill:#343434;fill-opacity:1;stroke-width:0.264584"><tspan
           style="fill:#428ee1;fill-opacity:1;stroke-width:0.264584"
           id="tspan4357">Ani</tspan><tspan
           style="fill:#65a5c4;fill-opacity:1;stroke-width:0.264584"
           id="tspan4359">ssia</tspan></tspan></text>
  </g>
  <g
     inkscape:groupmode="layer"
     id="layer4"
     inkscape:label="DARK-1"
     style="display:inline">
    <g
       aria-label="Ani"
       id="text234"
       style="font-style:normal;font-variant:normal;font-weight:normal;font-stretch:normal;font-size:12.3473px;line-height:1.25;font-family:Gabriola;-inkscape-font-specification:'Gabriola, Normal';font-variant-ligatures:normal;font-variant-caps:normal;font-variant-numeric:normal;font-variant-east-asian:normal;fill:#343434;fill-opacity:1;stroke:none;stroke-width:0.264584">
      <path
         d="M 1.578322,5.5262028 Q 1.4698008,5.8336795 1.3884099,6.0627798 1.3100335,6.2888656 1.249744,6.4576764 1.1894544,6.6264871 1.1442373,6.7500807 1.0990201,6.8706598 1.0598319,6.9701375 1.0116003,7.0846877 0.95131072,7.1479917 q -0.0602896,0.063304 -0.12962253,0.090434 -0.069333,0.030145 -0.15072387,0.033159 -0.0813909,0.00603 -0.17182522,0.00603 -0.0512461,0 -0.12660805,-0.00301 -0.0783764,0 -0.14168044,-0.00301 L 0.18864793,7.2414405 Q 0.55038522,6.4576764 0.8729343,5.7432452 1.1984979,5.0288141 1.4999456,4.3746725 1.4366416,4.2751947 1.4366416,4.2088762 q 0,-0.1205791 0.1929265,-0.1235936 0.5516494,-1.2118199 0.9827197,-2.13425 0.4310703,-0.9254446 0.7596483,-1.54642692 0.030145,-0.0572751 0.078376,-0.0934488 0.048232,-0.0391882 0.1055067,-0.0602896 0.057275,-0.0211013 0.1205791,-0.0301448 0.063304,-0.009043 0.1235936,-0.009043 0.08742,0 0.1718252,0.0150724 0.084405,0.0150724 0.1808687,0.0572751 Q 4.3425978,1.3300503 4.4993507,2.168075 4.659118,3.0030852 4.7947694,3.6572268 4.9304209,4.3113684 5.051,4.7997138 5.1715791,5.2850446 5.2831148,5.634724 q 0.1115357,0.3466649 0.2230713,0.5727507 0.1115357,0.2260859 0.2291003,0.3557084 0.1205791,0.1296225 0.2532161,0.1808686 0.132637,0.051246 0.2893898,0.051246 0.1024923,0 0.207999,-0.024116 0.1055067,-0.024116 0.2321148,-0.069333 l 0.084405,0.2471872 q -0.3466649,0.1718252 -0.663185,0.2622595 -0.3165201,0.090434 -0.5606928,0.090434 -0.138666,0 -0.2622596,-0.051246 Q 5.1956949,7.1992378 5.0811448,7.0756442 4.9696091,6.9490362 4.861088,6.7380228 4.7555812,6.5270094 4.6470601,6.2074747 4.5385389,5.8879401 4.4239887,5.4478264 4.3094386,5.0046982 4.1828305,4.4198896 3.6251522,4.4259186 3.0795318,4.4470199 2.5369258,4.4651068 1.9551317,4.498266 1.8375671,4.8087572 1.7411038,5.0680023 1.647655,5.3272473 1.578322,5.5262028 Z M 4.1044541,4.0491089 Q 4.0411501,3.7506756 3.9688026,3.3889383 3.8964552,3.0241866 3.8210932,2.6202466 3.7457313,2.2132921 3.6673549,1.7731784 3.5889785,1.3330647 3.5136165,0.88089311 H 3.4955297 Q 3.0614449,1.7792074 2.720809,2.5901018 2.380173,3.4009963 2.114899,4.0822682 2.6333891,4.0702102 3.11872,4.0641813 3.6040509,4.0551379 4.1044541,4.0491089 Z"
         style="fill:#428ee1;fill-opacity:1;stroke-width:0.264584"
         id="path4382" />
      <path
         d="m 7.3751621,3.6994295 q 0,-0.1235936 -0.018087,-0.2079989 -0.018087,-0.084405 -0.057275,-0.132637 -0.036174,-0.051246 -0.093449,-0.072347 -0.057275,-0.021101 -0.1356514,-0.021101 -0.1085212,0 -0.2592451,0.030145 -0.1507239,0.030145 -0.3436504,0.081391 L 6.4225872,3.1598381 q 0.2140279,-0.075362 0.4099689,-0.1356515 0.1989555,-0.063304 0.3647518,-0.1085212 0.1657963,-0.045217 0.2924043,-0.069333 0.1266081,-0.024116 0.1989555,-0.024116 0.1748397,0 0.271303,0.1055067 0.099478,0.1024922 0.099478,0.3557083 0,0.030145 -0.00603,0.1416805 -0.00603,0.1085212 -0.018087,0.2773319 -0.00904,0.1688107 -0.024116,0.3888676 -0.015072,0.2170424 -0.036174,0.4642295 -0.018087,0.2471872 -0.042203,0.5124612 -0.024116,0.2622595 -0.051246,0.524519 l 0.018087,0.00301 Q 8.1287814,4.8178006 8.391041,4.2842381 8.6533005,3.7476612 8.9246035,3.4160686 9.1959064,3.0814616 9.4641949,2.9337522 9.7324834,2.7860429 9.9766561,2.7860429 q 0.1688109,0 0.3255639,0.063304 0.156752,0.063304 0.277332,0.20197 0.123593,0.1386659 0.195941,0.3587228 0.07235,0.2170424 0.07235,0.5275335 0,0.090434 -0.01206,0.2441727 -0.009,0.1507239 -0.02412,0.3376215 -0.01507,0.1868976 -0.03617,0.397911 -0.01809,0.2079989 -0.03316,0.4099689 -0.01507,0.20197 -0.02713,0.3858531 -0.009,0.1808687 -0.009,0.3165202 0,0.2351292 0.01809,0.3828386 0.0211,0.1477094 0.06632,0.2351292 0.04522,0.084405 0.120579,0.1175647 0.07536,0.030145 0.183883,0.030145 0.156753,0 0.325564,-0.042203 0.168811,-0.045217 0.340636,-0.1235936 l 0.05728,0.1567528 q -0.108521,0.08742 -0.274318,0.1778542 -0.165796,0.090434 -0.349679,0.1657962 -0.180869,0.075362 -0.361737,0.1205791 -0.180869,0.048232 -0.319535,0.048232 -0.162782,0 -0.25623,-0.08742 -0.09345,-0.08742 -0.141681,-0.2381437 -0.04522,-0.1507239 -0.06029,-0.3526938 -0.01206,-0.20197 -0.01206,-0.4340848 0,-0.2833609 0.01809,-0.5817941 0.0211,-0.3014478 0.04522,-0.5727508 0.02412,-0.2713029 0.0422,-0.4913598 0.0211,-0.2230713 0.0211,-0.3557083 0,-0.3526939 -0.132637,-0.5184901 -0.1326374,-0.1688108 -0.3526942,-0.1688108 -0.1748397,0 -0.3677663,0.1477094 Q 9.123559,3.7928783 8.9306324,4.0521234 8.7407204,4.308354 8.5628662,4.6610478 8.3880265,5.0107272 8.2463461,5.4206961 8.1046656,5.8276506 8.0112168,6.2737932 7.917768,6.7199359 7.8936522,7.1660786 L 7.2636264,7.244455 7.2153948,7.2414405 Q 7.2395106,6.9550651 7.2606119,6.6174437 7.2817133,6.2798222 7.2998001,5.9331573 7.317887,5.5834779 7.3299449,5.242842 7.3450173,4.8991915 7.3540607,4.6037727 7.3661186,4.3053395 7.3691331,4.0702102 7.3751621,3.835081 7.3751621,3.6994295 Z"
         style="fill:#428ee1;fill-opacity:1;stroke-width:0.264584"
         id="path4384" />
      <path
         d="m 13.030322,1.562165 q -0.105507,0 -0.186898,-0.042203 -0.08139,-0.045217 -0.138666,-0.1145501 -0.05728,-0.072348 -0.08742,-0.1627818 -0.03015,-0.093449 -0.03015,-0.1899121 0,-0.13565146 0.04522,-0.23814369 0.04522,-0.10550671 0.117564,-0.17483969 0.07235,-0.0723475 0.159768,-0.10550671 0.08742,-0.0361737 0.171825,-0.0361737 0.102492,0 0.183883,0.0391882 0.08139,0.0361737 0.138666,0.10249223 0.06029,0.0663185 0.09043,0.15373835 0.03316,0.0844054 0.03316,0.18388312 0,0.10550669 -0.03617,0.21101339 -0.03617,0.1024922 -0.102493,0.1868976 -0.0633,0.084405 -0.156752,0.1356515 -0.09043,0.051246 -0.20197,0.051246 z m 0.262259,1.3625438 q -0.05125,0.3436504 -0.08742,0.6903153 -0.03617,0.3436505 -0.06029,0.6661996 -0.0211,0.322549 -0.03316,0.6119389 -0.009,0.2863753 -0.009,0.5184901 0,0.3135057 0.009,0.5395915 0.009,0.2230713 0.03014,0.3768096 0.0211,0.1537384 0.05125,0.2471872 0.03316,0.090434 0.07838,0.1416804 0.04823,0.048232 0.108521,0.063304 0.0633,0.015072 0.14168,0.015072 0.144695,0 0.310492,-0.042203 0.16881,-0.045217 0.340636,-0.1235936 l 0.05727,0.1567528 q -0.108521,0.08742 -0.274318,0.1778542 -0.162782,0.090434 -0.34365,0.1657962 -0.180869,0.075362 -0.355709,0.1205791 -0.171825,0.048232 -0.298433,0.048232 -0.08441,0 -0.153738,-0.015072 -0.06933,-0.012058 -0.126608,-0.066319 -0.05426,-0.054261 -0.09948,-0.1597673 -0.0422,-0.1055067 -0.07235,-0.2863754 -0.02713,-0.1808686 -0.0422,-0.4521716 -0.01507,-0.271303 -0.01507,-0.6571561 0,-0.2260858 0.003,-0.5094467 0.006,-0.2863753 0.01507,-0.6119389 0.009,-0.328578 0.02412,-0.6903153 0.01507,-0.3647518 0.03919,-0.7506049 0.006,-0.084405 0.04522,-0.1356515 0.03919,-0.054261 0.09646,-0.081391 0.05727,-0.030145 0.120579,-0.039188 0.06632,-0.012058 0.120579,-0.012058 0.20197,0 0.379824,0.093449 z"
         style="fill:#428ee1;fill-opacity:1;stroke-width:0.264584"
         id="path4386" />
    </g>
  </g>
  <g
     inkscape:groupmode="layer"
     id="g4355"
     inkscape:label="DARK-2"
     style="display:inline">
    <g
       aria-label="ssia"
       id="text4353"
       style="font-style:normal;font-variant:normal;font-weight:normal;font-stretch:normal;font-size:12.3473px;line-height:1.25;font-family:Gabriola;-inkscape-font-specification:'Gabriola, Normal';font-variant-ligatures:normal;font-variant-caps:normal;font-variant-numeric:normal;font-variant-east-asian:normal;fill:#343434;fill-opacity:1;stroke:none;stroke-width:0.264584">
      <path
         d="m 14.938852,6.0777979 q 0.0211,0.2291002 0.120579,0.3948965 0.102492,0.1657963 0.250201,0.271303 0.14771,0.1055067 0.325564,0.1567528 0.180869,0.051246 0.358723,0.051246 0.165796,0 0.319534,-0.045217 0.153739,-0.045217 0.271303,-0.1296225 0.117565,-0.084405 0.186898,-0.2079989 0.07235,-0.1235936 0.07235,-0.2773319 0,-0.1597674 -0.07536,-0.2803464 Q 16.693278,5.8909003 16.56667,5.7914225 16.440061,5.6919447 16.271251,5.6075394 16.105454,5.523134 15.924586,5.4357142 15.764819,5.3603522 15.602037,5.2849903 15.442269,5.2066139 15.291546,5.1161796 15.140822,5.0257452 15.008185,4.9202385 14.878562,4.8147318 14.779084,4.6881238 14.682621,4.5585012 14.625346,4.4017484 q -0.05426,-0.1597673 -0.05426,-0.3526939 0,-0.2079989 0.07235,-0.3828386 0.07235,-0.1748397 0.195941,-0.3135056 0.126608,-0.1416805 0.28939,-0.2471872 0.165796,-0.1055067 0.352694,-0.1748397 0.186897,-0.072347 0.382838,-0.1055067 0.198956,-0.036174 0.385853,-0.036174 0.241159,0 0.455186,0.054261 0.217043,0.051246 0.37681,0.1537383 0.162782,0.099478 0.256231,0.2441727 0.09646,0.1446949 0.09646,0.3255636 0,0.069333 -0.02412,0.1507238 -0.02412,0.081391 -0.08139,0.1537384 -0.05728,0.069333 -0.150724,0.1175646 -0.09345,0.048232 -0.2291,0.051246 -0.126608,0 -0.265274,-0.039188 l -0.009,-0.030145 q 0.0422,-0.096463 0.06029,-0.1778541 0.01809,-0.081391 0.01809,-0.1507239 -0.003,-0.138666 -0.07235,-0.2321148 -0.06632,-0.096463 -0.168811,-0.1567528 -0.102492,-0.06029 -0.2291,-0.08742 -0.123594,-0.02713 -0.244173,-0.02713 -0.214028,0 -0.382839,0.057275 -0.16881,0.057275 -0.286375,0.1537384 -0.11455,0.093449 -0.177854,0.2140279 -0.06029,0.1205791 -0.06029,0.2502016 0,0.1657963 0.08742,0.2984333 0.08742,0.1296225 0.232115,0.2411582 0.144695,0.1085211 0.331592,0.2049844 0.189912,0.096463 0.394897,0.1929266 0.2291,0.1085212 0.455186,0.2260858 0.226086,0.1145501 0.40394,0.2622595 0.177854,0.1477094 0.286375,0.340636 0.111536,0.1899121 0.111536,0.4491571 0,0.3104912 -0.138666,0.5516494 -0.135651,0.2411582 -0.364752,0.4069544 -0.2291,0.1657963 -0.527533,0.2502017 -0.295419,0.08742 -0.614954,0.08742 -0.159767,0 -0.331592,-0.024116 Q 15.288531,7.2775599 15.128764,7.2293282 14.968996,7.1810966 14.824302,7.1117636 14.682621,7.0394162 14.5741,6.9489818 14.468593,6.855533 14.405289,6.7439974 14.345,6.6294472 14.345,6.4937957 q 0,-0.1175646 0.04823,-0.1989555 0.05125,-0.081391 0.132637,-0.132637 0.08139,-0.051246 0.180869,-0.075362 0.102492,-0.02713 0.207999,-0.030145 z"
         style="fill:#65a5c4;fill-opacity:1;stroke-width:0.264584"
         id="path2424" />
      <path
         d="m 18.514022,6.0777979 q 0.0211,0.2291002 0.120579,0.3948965 0.102492,0.1657963 0.250202,0.271303 0.147709,0.1055067 0.325563,0.1567528 0.180869,0.051246 0.358723,0.051246 0.165796,0 0.319535,-0.045217 0.153738,-0.045217 0.271303,-0.1296225 0.117564,-0.084405 0.186897,-0.2079989 0.07235,-0.1235936 0.07235,-0.2773319 0,-0.1597674 -0.07536,-0.2803464 Q 20.268448,5.8909003 20.14184,5.7914225 20.015232,5.6919447 19.846421,5.6075394 19.680625,5.523134 19.499756,5.4357142 19.339989,5.3603522 19.177207,5.2849903 19.01744,5.2066139 18.866716,5.1161796 18.715992,5.0257452 18.583355,4.9202385 18.453732,4.8147318 18.354255,4.6881238 18.257791,4.5585012 18.200516,4.4017484 q -0.05426,-0.1597673 -0.05426,-0.3526939 0,-0.2079989 0.07235,-0.3828386 0.07235,-0.1748397 0.195941,-0.3135056 0.126608,-0.1416805 0.28939,-0.2471872 0.165796,-0.1055067 0.352694,-0.1748397 0.186898,-0.072347 0.382839,-0.1055067 0.198955,-0.036174 0.385853,-0.036174 0.241158,0 0.455186,0.054261 0.217042,0.051246 0.376809,0.1537383 0.162782,0.099478 0.256231,0.2441727 0.09646,0.1446949 0.09646,0.3255636 0,0.069333 -0.02412,0.1507238 -0.02412,0.081391 -0.08139,0.1537384 -0.05727,0.069333 -0.150724,0.1175646 -0.09345,0.048232 -0.229101,0.051246 -0.126608,0 -0.265274,-0.039188 l -0.009,-0.030145 q 0.0422,-0.096463 0.06029,-0.1778541 0.01809,-0.081391 0.01809,-0.1507239 -0.003,-0.138666 -0.07235,-0.2321148 -0.06632,-0.096463 -0.168811,-0.1567528 -0.102492,-0.06029 -0.2291,-0.08742 -0.123594,-0.02713 -0.244173,-0.02713 -0.214028,0 -0.382838,0.057275 -0.168811,0.057275 -0.286376,0.1537384 -0.11455,0.093449 -0.177854,0.2140279 -0.06029,0.1205791 -0.06029,0.2502016 0,0.1657963 0.08742,0.2984333 0.08742,0.1296225 0.232115,0.2411582 0.144695,0.1085211 0.331593,0.2049844 0.189912,0.096463 0.394896,0.1929266 0.2291,0.1085212 0.455186,0.2260858 0.226086,0.1145501 0.40394,0.2622595 0.177854,0.1477094 0.286376,0.340636 0.111535,0.1899121 0.111535,0.4491571 0,0.3104912 -0.138666,0.5516494 -0.135651,0.2411582 -0.364751,0.4069544 -0.229101,0.1657963 -0.527534,0.2502017 -0.295419,0.08742 -0.614953,0.08742 -0.159768,0 -0.331593,-0.024116 Q 18.863701,7.2775599 18.703934,7.2293282 18.544167,7.1810966 18.399472,7.1117636 18.257791,7.0394162 18.14927,6.9489818 18.043763,6.855533 17.980459,6.7439974 17.92017,6.6294472 17.92017,6.4937957 q 0,-0.1175646 0.04823,-0.1989555 0.05125,-0.081391 0.132637,-0.132637 0.08139,-0.051246 0.180868,-0.075362 0.102492,-0.02713 0.207999,-0.030145 z"
         style="fill:#65a5c4;fill-opacity:1;stroke-width:0.264584"
         id="path2426" />
      <path
         d="m 22.571509,1.5621107 q -0.105507,0 -0.186898,-0.042203 -0.08139,-0.045217 -0.138666,-0.1145502 -0.05728,-0.072347 -0.08742,-0.1627818 -0.03015,-0.093449 -0.03015,-0.189912 0,-0.13565152 0.04522,-0.23814375 0.04522,-0.10550671 0.117564,-0.17483969 0.07235,-0.0723475 0.159768,-0.10550671 0.08742,-0.0361737 0.171825,-0.0361737 0.102492,0 0.183883,0.0391882 0.08139,0.0361737 0.138666,0.10249223 0.06029,0.0663185 0.09043,0.15373835 0.03316,0.0844054 0.03316,0.18388312 0,0.10550667 -0.03617,0.21101347 -0.03617,0.1024922 -0.102493,0.1868976 -0.0633,0.084405 -0.156752,0.1356514 -0.09043,0.051246 -0.20197,0.051246 z m 0.262259,1.3625438 q -0.05125,0.3436504 -0.08742,0.6903153 -0.03617,0.3436504 -0.06029,0.6661995 -0.0211,0.3225491 -0.03316,0.6119389 -0.009,0.2863754 -0.009,0.5184901 0,0.3135057 0.009,0.5395915 0.009,0.2230713 0.03014,0.3768097 0.0211,0.1537383 0.05125,0.2471871 0.03316,0.090434 0.07838,0.1416805 0.04823,0.048232 0.108521,0.063304 0.0633,0.015072 0.14168,0.015072 0.144695,0 0.310492,-0.042203 0.16881,-0.045217 0.340636,-0.1235936 l 0.05727,0.1567529 q -0.108522,0.08742 -0.274318,0.1778541 -0.162782,0.090434 -0.34365,0.1657963 -0.180869,0.075362 -0.355709,0.1205791 -0.171825,0.048232 -0.298433,0.048232 -0.08441,0 -0.153738,-0.015072 -0.06933,-0.012058 -0.126608,-0.066319 -0.05426,-0.054261 -0.09948,-0.1597673 -0.0422,-0.1055067 -0.07235,-0.2863753 -0.02713,-0.1808687 -0.0422,-0.4521717 -0.01507,-0.2713029 -0.01507,-0.657156 0,-0.2260858 0.003,-0.5094467 0.006,-0.2863754 0.01507,-0.6119389 0.009,-0.3285781 0.02412,-0.6903154 0.01507,-0.3647517 0.03919,-0.7506049 0.006,-0.084405 0.04522,-0.1356514 0.03919,-0.054261 0.09646,-0.081391 0.05727,-0.030145 0.120579,-0.039188 0.06632,-0.012058 0.120579,-0.012058 0.20197,0 0.379824,0.093449 z"
         style="fill:#65a5c4;fill-opacity:1;stroke-width:0.264584"
         id="path2428" />
      <path
         d="m 26.538561,4.0671414 q 0,-0.2381437 -0.07838,-0.4129834 Q 26.381808,3.4793183 26.2552,3.3677826 26.128592,3.256247 25.968825,3.2019864 25.809058,3.1477258 25.64929,3.1477258 q -0.214027,0 -0.361737,0.045217 -0.147709,0.045217 -0.241158,0.1235936 -0.09043,0.078376 -0.132637,0.1868976 -0.03919,0.1055067 -0.03919,0.2291003 0,0.1446949 0.05125,0.2924043 0.05426,0.1446949 0.156753,0.2833609 l -0.01206,0.033159 q -0.171825,0.084405 -0.346665,0.084405 -0.102492,0 -0.192927,-0.030145 -0.08742,-0.033159 -0.153738,-0.093449 -0.0633,-0.060289 -0.102492,-0.1477093 -0.03617,-0.08742 -0.03617,-0.1959411 0,-0.1778542 0.08441,-0.334607 0.08742,-0.1567528 0.229101,-0.2863753 0.14168,-0.1296226 0.328578,-0.2321148 0.186897,-0.1024922 0.385853,-0.1718252 0.198955,-0.072347 0.397911,-0.1085212 0.20197,-0.039188 0.373795,-0.039188 0.31652,0 0.539591,0.084405 0.226086,0.084405 0.364752,0.2471871 0.141681,0.1597673 0.204985,0.3888676 0.06632,0.2291003 0.06632,0.5184901 0,0.1989555 -0.01809,0.4370992 -0.01507,0.2381438 -0.03617,0.5004033 -0.0211,0.2592451 -0.03919,0.536577 -0.01507,0.2773319 -0.01507,0.5516494 0,0.4340847 0.159767,0.6541416 0.162782,0.2170423 0.425042,0.2170423 0.232114,0 0.51849,-0.1718252 l 0.08742,0.1296226 q -0.20197,0.2019699 -0.440114,0.3074767 -0.238144,0.1055067 -0.500403,0.1055067 -0.195941,0 -0.361738,-0.066319 -0.165796,-0.066318 -0.286375,-0.1959411 -0.120579,-0.132637 -0.186898,-0.3315925 -0.06632,-0.1989555 -0.06632,-0.461215 0,-0.078377 0.003,-0.1567529 0.006,-0.078376 0.0211,-0.1657962 h -0.01809 q -0.129623,0.259245 -0.301448,0.5124611 -0.168811,0.2502017 -0.373795,0.4491572 -0.20197,0.195941 -0.434085,0.3165201 -0.2291,0.1235936 -0.482316,0.1235936 -0.207999,0 -0.379824,-0.072348 -0.171826,-0.072347 -0.295419,-0.1989555 -0.120579,-0.126608 -0.189912,-0.2984333 -0.06632,-0.1748396 -0.06632,-0.3798241 0,-0.265274 0.09646,-0.4823164 0.09948,-0.2170424 0.271303,-0.3888676 0.174839,-0.1718252 0.415997,-0.2954188 0.241159,-0.126608 0.524519,-0.2079989 0.283361,-0.084405 0.599881,-0.1235936 0.316521,-0.042203 0.645099,-0.042203 0.0211,-0.1899121 0.03316,-0.3677662 0.01507,-0.1778542 0.01507,-0.3918821 z m -1.850889,2.070946 q 0,0.1175646 0.02412,0.2260858 0.02713,0.1055067 0.08139,0.1868976 0.05728,0.081391 0.14168,0.1296225 0.08742,0.045217 0.207999,0.045217 0.135652,0 0.280347,-0.063304 0.144695,-0.063304 0.283361,-0.1748397 0.14168,-0.1115357 0.268288,-0.265274 0.129623,-0.1567529 0.232115,-0.340636 0.102492,-0.1838831 0.168811,-0.3858531 0.06933,-0.2049845 0.09043,-0.4190124 -0.223072,0.00603 -0.443128,0.030145 -0.220057,0.021101 -0.419013,0.069333 -0.195941,0.048232 -0.364751,0.1266081 -0.168811,0.078376 -0.292405,0.195941 -0.120579,0.1145501 -0.189912,0.2743174 -0.06933,0.1567529 -0.06933,0.3647518 z"
         style="fill:#65a5c4;fill-opacity:1;stroke-width:0.264584"
         id="path2430" />
    </g>
  </g>
  <g
     inkscape:groupmode="layer"
     id="g4397"
     inkscape:label="LIGHT-1"
     style="display:none">
    <g
       aria-label="Ani"
       id="g4395"
       style="font-style:normal;font-variant:normal;font-weight:normal;font-stretch:normal;font-size:12.3473px;line-height:1.25;font-family:Gabriola;-inkscape-font-specification:'Gabriola, Normal';font-variant-ligatures:normal;font-variant-caps:normal;font-variant-numeric:normal;font-variant-east-asian:normal;fill:#2979ce;fill-opacity:1;stroke:none;stroke-width:0.264584">
      <path
         d="M 1.578322,5.5262028 Q 1.4698008,5.8336795 1.3884099,6.0627798 1.3100335,6.2888656 1.249744,6.4576764 1.1894544,6.6264871 1.1442373,6.7500807 1.0990201,6.8706598 1.0598319,6.9701375 1.0116003,7.0846877 0.95131072,7.1479917 q -0.0602896,0.063304 -0.12962253,0.090434 -0.069333,0.030145 -0.15072387,0.033159 -0.0813909,0.00603 -0.17182522,0.00603 -0.0512461,0 -0.12660805,-0.00301 -0.0783764,0 -0.14168044,-0.00301 L 0.18864793,7.2414405 Q 0.55038522,6.4576764 0.8729343,5.7432452 1.1984979,5.0288141 1.4999456,4.3746725 1.4366416,4.2751947 1.4366416,4.2088762 q 0,-0.1205791 0.1929265,-0.1235936 0.5516494,-1.2118199 0.9827197,-2.13425 0.4310703,-0.9254446 0.7596483,-1.54642692 0.030145,-0.0572751 0.078376,-0.0934488 0.048232,-0.0391882 0.1055067,-0.0602896 0.057275,-0.0211013 0.1205791,-0.0301448 0.063304,-0.009043 0.1235936,-0.009043 0.08742,0 0.1718252,0.0150724 0.084405,0.0150724 0.1808687,0.0572751 Q 4.3425978,1.3300503 4.4993507,2.168075 4.659118,3.0030852 4.7947694,3.6572268 4.9304209,4.3113684 5.051,4.7997138 5.1715791,5.2850446 5.2831148,5.634724 q 0.1115357,0.3466649 0.2230713,0.5727507 0.1115357,0.2260859 0.2291003,0.3557084 0.1205791,0.1296225 0.2532161,0.1808686 0.132637,0.051246 0.2893898,0.051246 0.1024923,0 0.207999,-0.024116 0.1055067,-0.024116 0.2321148,-0.069333 l 0.084405,0.2471872 q -0.3466649,0.1718252 -0.663185,0.2622595 -0.3165201,0.090434 -0.5606928,0.090434 -0.138666,0 -0.2622596,-0.051246 Q 5.1956949,7.1992378 5.0811448,7.0756442 4.9696091,6.9490362 4.861088,6.7380228 4.7555812,6.5270094 4.6470601,6.2074747 4.5385389,5.8879401 4.4239887,5.4478264 4.3094386,5.0046982 4.1828305,4.4198896 3.6251522,4.4259186 3.0795318,4.4470199 2.5369258,4.4651068 1.9551317,4.498266 1.8375671,4.8087572 1.7411038,5.0680023 1.647655,5.3272473 1.578322,5.5262028 Z M 4.1044541,4.0491089 Q 4.0411501,3.7506756 3.9688026,3.3889383 3.8964552,3.0241866 3.8210932,2.6202466 3.7457313,2.2132921 3.6673549,1.7731784 3.5889785,1.3330647 3.5136165,0.88089311 H 3.4955297 Q 3.0614449,1.7792074 2.720809,2.5901018 2.380173,3.4009963 2.114899,4.0822682 2.6333891,4.0702102 3.11872,4.0641813 3.6040509,4.0551379 4.1044541,4.0491089 Z"
         style="fill:#2979ce;fill-opacity:1;stroke-width:0.264584"
         id="path4389" />
      <path
         d="m 7.3751621,3.6994295 q 0,-0.1235936 -0.018087,-0.2079989 -0.018087,-0.084405 -0.057275,-0.132637 -0.036174,-0.051246 -0.093449,-0.072347 -0.057275,-0.021101 -0.1356514,-0.021101 -0.1085212,0 -0.2592451,0.030145 -0.1507239,0.030145 -0.3436504,0.081391 L 6.4225872,3.1598381 q 0.2140279,-0.075362 0.4099689,-0.1356515 0.1989555,-0.063304 0.3647518,-0.1085212 0.1657963,-0.045217 0.2924043,-0.069333 0.1266081,-0.024116 0.1989555,-0.024116 0.1748397,0 0.271303,0.1055067 0.099478,0.1024922 0.099478,0.3557083 0,0.030145 -0.00603,0.1416805 -0.00603,0.1085212 -0.018087,0.2773319 -0.00904,0.1688107 -0.024116,0.3888676 -0.015072,0.2170424 -0.036174,0.4642295 -0.018087,0.2471872 -0.042203,0.5124612 -0.024116,0.2622595 -0.051246,0.524519 l 0.018087,0.00301 Q 8.1287814,4.8178006 8.391041,4.2842381 8.6533005,3.7476612 8.9246035,3.4160686 9.1959064,3.0814616 9.4641949,2.9337522 9.7324834,2.7860429 9.9766561,2.7860429 q 0.1688109,0 0.3255639,0.063304 0.156752,0.063304 0.277332,0.20197 0.123593,0.1386659 0.195941,0.3587228 0.07235,0.2170424 0.07235,0.5275335 0,0.090434 -0.01206,0.2441727 -0.009,0.1507239 -0.02412,0.3376215 -0.01507,0.1868976 -0.03617,0.397911 -0.01809,0.2079989 -0.03316,0.4099689 -0.01507,0.20197 -0.02713,0.3858531 -0.009,0.1808687 -0.009,0.3165202 0,0.2351292 0.01809,0.3828386 0.0211,0.1477094 0.06632,0.2351292 0.04522,0.084405 0.120579,0.1175647 0.07536,0.030145 0.183883,0.030145 0.156753,0 0.325564,-0.042203 0.168811,-0.045217 0.340636,-0.1235936 l 0.05728,0.1567528 q -0.108521,0.08742 -0.274318,0.1778542 -0.165796,0.090434 -0.349679,0.1657962 -0.180869,0.075362 -0.361737,0.1205791 -0.180869,0.048232 -0.319535,0.048232 -0.162782,0 -0.25623,-0.08742 -0.09345,-0.08742 -0.141681,-0.2381437 -0.04522,-0.1507239 -0.06029,-0.3526938 -0.01206,-0.20197 -0.01206,-0.4340848 0,-0.2833609 0.01809,-0.5817941 0.0211,-0.3014478 0.04522,-0.5727508 0.02412,-0.2713029 0.0422,-0.4913598 0.0211,-0.2230713 0.0211,-0.3557083 0,-0.3526939 -0.132637,-0.5184901 -0.1326374,-0.1688108 -0.3526942,-0.1688108 -0.1748397,0 -0.3677663,0.1477094 Q 9.123559,3.7928783 8.9306324,4.0521234 8.7407204,4.308354 8.5628662,4.6610478 8.3880265,5.0107272 8.2463461,5.4206961 8.1046656,5.8276506 8.0112168,6.2737932 7.917768,6.7199359 7.8936522,7.1660786 L 7.2636264,7.244455 7.2153948,7.2414405 Q 7.2395106,6.9550651 7.2606119,6.6174437 7.2817133,6.2798222 7.2998001,5.9331573 7.317887,5.5834779 7.3299449,5.242842 7.3450173,4.8991915 7.3540607,4.6037727 7.3661186,4.3053395 7.3691331,4.0702102 7.3751621,3.835081 7.3751621,3.6994295 Z"
         style="fill:#2979ce;fill-opacity:1;stroke-width:0.264584"
         id="path4391" />
      <path
         d="m 13.030322,1.562165 q -0.105507,0 -0.186898,-0.042203 -0.08139,-0.045217 -0.138666,-0.1145501 -0.05728,-0.072348 -0.08742,-0.1627818 -0.03015,-0.093449 -0.03015,-0.1899121 0,-0.13565146 0.04522,-0.23814369 0.04522,-0.10550671 0.117564,-0.17483969 0.07235,-0.0723475 0.159768,-0.10550671 0.08742,-0.0361737 0.171825,-0.0361737 0.102492,0 0.183883,0.0391882 0.08139,0.0361737 0.138666,0.10249223 0.06029,0.0663185 0.09043,0.15373835 0.03316,0.0844054 0.03316,0.18388312 0,0.10550669 -0.03617,0.21101339 -0.03617,0.1024922 -0.102493,0.1868976 -0.0633,0.084405 -0.156752,0.1356515 -0.09043,0.051246 -0.20197,0.051246 z m 0.262259,1.3625438 q -0.05125,0.3436504 -0.08742,0.6903153 -0.03617,0.3436505 -0.06029,0.6661996 -0.0211,0.322549 -0.03316,0.6119389 -0.009,0.2863753 -0.009,0.5184901 0,0.3135057 0.009,0.5395915 0.009,0.2230713 0.03014,0.3768096 0.0211,0.1537384 0.05125,0.2471872 0.03316,0.090434 0.07838,0.1416804 0.04823,0.048232 0.108521,0.063304 0.0633,0.015072 0.14168,0.015072 0.144695,0 0.310492,-0.042203 0.16881,-0.045217 0.340636,-0.1235936 l 0.05727,0.1567528 q -0.108521,0.08742 -0.274318,0.1778542 -0.162782,0.090434 -0.34365,0.1657962 -0.180869,0.075362 -0.355709,0.1205791 -0.171825,0.048232 -0.298433,0.048232 -0.08441,0 -0.153738,-0.015072 -0.06933,-0.012058 -0.126608,-0.066319 -0.05426,-0.054261 -0.09948,-0.1597673 -0.0422,-0.1055067 -0.07235,-0.2863754 -0.02713,-0.1808686 -0.0422,-0.4521716 -0.01507,-0.271303 -0.01507,-0.6571561 0,-0.2260858 0.003,-0.5094467 0.006,-0.2863753 0.01507,-0.6119389 0.009,-0.328578 0.02412,-0.6903153 0.01507,-0.3647518 0.03919,-0.7506049 0.006,-0.084405 0.04522,-0.1356515 0.03919,-0.054261 0.09646,-0.081391 0.05727,-0.030145 0.120579,-0.039188 0.06632,-0.012058 0.120579,-0.012058 0.20197,0 0.379824,0.093449 z"
         style="fill:#2979ce;fill-opacity:1;stroke-width:0.264584"
         id="path4393" />
    </g>
  </g>
  <g
     inkscape:groupmode="layer"
     id="g4405"
     inkscape:label="LIGHT-2"
     style="display:none">
    <g
       aria-label="ssia"
       id="text4403"
       style="font-style:normal;font-variant:normal;font-weight:normal;font-stretch:normal;font-size:12.3473px;line-height:1.25;font-family:Gabriola;-inkscape-font-specification:'Gabriola, Normal';font-variant-ligatures:normal;font-variant-caps:normal;font-variant-numeric:normal;font-variant-east-asian:normal;fill:#1b628e;fill-opacity:1;stroke:none;stroke-width:0.264584">
      <path
         d="m 14.938852,6.0777979 q 0.0211,0.2291002 0.120579,0.3948965 0.102492,0.1657963 0.250201,0.271303 0.14771,0.1055067 0.325564,0.1567528 0.180869,0.051246 0.358723,0.051246 0.165796,0 0.319534,-0.045217 0.153739,-0.045217 0.271303,-0.1296225 0.117565,-0.084405 0.186898,-0.2079989 0.07235,-0.1235936 0.07235,-0.2773319 0,-0.1597674 -0.07536,-0.2803464 Q 16.693278,5.8909003 16.56667,5.7914225 16.440061,5.6919447 16.271251,5.6075394 16.105454,5.523134 15.924586,5.4357142 15.764819,5.3603522 15.602037,5.2849903 15.442269,5.2066139 15.291546,5.1161796 15.140822,5.0257452 15.008185,4.9202385 14.878562,4.8147318 14.779084,4.6881238 14.682621,4.5585012 14.625346,4.4017484 q -0.05426,-0.1597673 -0.05426,-0.3526939 0,-0.2079989 0.07235,-0.3828386 0.07235,-0.1748397 0.195941,-0.3135056 0.126608,-0.1416805 0.28939,-0.2471872 0.165796,-0.1055067 0.352694,-0.1748397 0.186897,-0.072347 0.382838,-0.1055067 0.198956,-0.036174 0.385853,-0.036174 0.241159,0 0.455186,0.054261 0.217043,0.051246 0.37681,0.1537383 0.162782,0.099478 0.256231,0.2441727 0.09646,0.1446949 0.09646,0.3255636 0,0.069333 -0.02412,0.1507238 -0.02412,0.081391 -0.08139,0.1537384 -0.05728,0.069333 -0.150724,0.1175646 -0.09345,0.048232 -0.2291,0.051246 -0.126608,0 -0.265274,-0.039188 l -0.009,-0.030145 q 0.0422,-0.096463 0.06029,-0.1778541 0.01809,-0.081391 0.01809,-0.1507239 -0.003,-0.138666 -0.07235,-0.2321148 -0.06632,-0.096463 -0.168811,-0.1567528 -0.102492,-0.06029 -0.2291,-0.08742 -0.123594,-0.02713 -0.244173,-0.02713 -0.214028,0 -0.382839,0.057275 -0.16881,0.057275 -0.286375,0.1537384 -0.11455,0.093449 -0.177854,0.2140279 -0.06029,0.1205791 -0.06029,0.2502016 0,0.1657963 0.08742,0.2984333 0.08742,0.1296225 0.232115,0.2411582 0.144695,0.1085211 0.331592,0.2049844 0.189912,0.096463 0.394897,0.1929266 0.2291,0.1085212 0.455186,0.2260858 0.226086,0.1145501 0.40394,0.2622595 0.177854,0.1477094 0.286375,0.340636 0.111536,0.1899121 0.111536,0.4491571 0,0.3104912 -0.138666,0.5516494 -0.135651,0.2411582 -0.364752,0.4069544 -0.2291,0.1657963 -0.527533,0.2502017 -0.295419,0.08742 -0.614954,0.08742 -0.159767,0 -0.331592,-0.024116 Q 15.288531,7.2775599 15.128764,7.2293282 14.968996,7.1810966 14.824302,7.1117636 14.682621,7.0394162 14.5741,6.9489818 14.468593,6.855533 14.405289,6.7439974 14.345,6.6294472 14.345,6.4937957 q 0,-0.1175646 0.04823,-0.1989555 0.05125,-0.081391 0.132637,-0.132637 0.08139,-0.051246 0.180869,-0.075362 0.102492,-0.02713 0.207999,-0.030145 z"
         style="fill:#1b628e;fill-opacity:1;stroke-width:0.264584"
         id="path2415" />
      <path
         d="m 18.514022,6.0777979 q 0.0211,0.2291002 0.120579,0.3948965 0.102492,0.1657963 0.250202,0.271303 0.147709,0.1055067 0.325563,0.1567528 0.180869,0.051246 0.358723,0.051246 0.165796,0 0.319535,-0.045217 0.153738,-0.045217 0.271303,-0.1296225 0.117564,-0.084405 0.186897,-0.2079989 0.07235,-0.1235936 0.07235,-0.2773319 0,-0.1597674 -0.07536,-0.2803464 Q 20.268448,5.8909003 20.14184,5.7914225 20.015232,5.6919447 19.846421,5.6075394 19.680625,5.523134 19.499756,5.4357142 19.339989,5.3603522 19.177207,5.2849903 19.01744,5.2066139 18.866716,5.1161796 18.715992,5.0257452 18.583355,4.9202385 18.453732,4.8147318 18.354255,4.6881238 18.257791,4.5585012 18.200516,4.4017484 q -0.05426,-0.1597673 -0.05426,-0.3526939 0,-0.2079989 0.07235,-0.3828386 0.07235,-0.1748397 0.195941,-0.3135056 0.126608,-0.1416805 0.28939,-0.2471872 0.165796,-0.1055067 0.352694,-0.1748397 0.186898,-0.072347 0.382839,-0.1055067 0.198955,-0.036174 0.385853,-0.036174 0.241158,0 0.455186,0.054261 0.217042,0.051246 0.376809,0.1537383 0.162782,0.099478 0.256231,0.2441727 0.09646,0.1446949 0.09646,0.3255636 0,0.069333 -0.02412,0.1507238 -0.02412,0.081391 -0.08139,0.1537384 -0.05727,0.069333 -0.150724,0.1175646 -0.09345,0.048232 -0.229101,0.051246 -0.126608,0 -0.265274,-0.039188 l -0.009,-0.030145 q 0.0422,-0.096463 0.06029,-0.1778541 0.01809,-0.081391 0.01809,-0.1507239 -0.003,-0.138666 -0.07235,-0.2321148 -0.06632,-0.096463 -0.168811,-0.1567528 -0.102492,-0.06029 -0.2291,-0.08742 -0.123594,-0.02713 -0.244173,-0.02713 -0.214028,0 -0.382838,0.057275 -0.168811,0.057275 -0.286376,0.1537384 -0.11455,0.093449 -0.177854,0.2140279 -0.06029,0.1205791 -0.06029,0.2502016 0,0.1657963 0.08742,0.2984333 0.08742,0.1296225 0.232115,0.2411582 0.144695,0.1085211 0.331593,0.2049844 0.189912,0.096463 0.394896,0.1929266 0.2291,0.1085212 0.455186,0.2260858 0.226086,0.1145501 0.40394,0.2622595 0.177854,0.1477094 0.286376,0.340636 0.111535,0.1899121 0.111535,0.4491571 0,0.3104912 -0.138666,0.5516494 -0.135651,0.2411582 -0.364751,0.4069544 -0.229101,0.1657963 -0.527534,0.2502017 -0.295419,0.08742 -0.614953,0.08742 -0.159768,0 -0.331593,-0.024116 Q 18.863701,7.2775599 18.703934,7.2293282 18.544167,7.1810966 18.399472,7.1117636 18.257791,7.0394162 18.14927,6.9489818 18.043763,6.855533 17.980459,6.7439974 17.92017,6.6294472 17.92017,6.4937957 q 0,-0.1175646 0.04823,-0.1989555 0.05125,-0.081391 0.132637,-0.132637 0.08139,-0.051246 0.180868,-0.075362 0.102492,-0.02713 0.207999,-0.030145 z"
         style="fill:#1b628e;fill-opacity:1;stroke-width:0.264584"
         id="path2417" />
      <path
         d="m 22.571509,1.5621107 q -0.105507,0 -0.186898,-0.042203 -0.08139,-0.045217 -0.138666,-0.1145502 -0.05728,-0.072347 -0.08742,-0.1627818 -0.03015,-0.093449 -0.03015,-0.189912 0,-0.13565152 0.04522,-0.23814375 0.04522,-0.10550671 0.117564,-0.17483969 0.07235,-0.0723475 0.159768,-0.10550671 0.08742,-0.0361737 0.171825,-0.0361737 0.102492,0 0.183883,0.0391882 0.08139,0.0361737 0.138666,0.10249223 0.06029,0.0663185 0.09043,0.15373835 0.03316,0.0844054 0.03316,0.18388312 0,0.10550665 -0.03617,0.21101345 -0.03617,0.1024922 -0.102493,0.1868976 -0.0633,0.084405 -0.156752,0.1356514 -0.09043,0.051246 -0.20197,0.051246 z m 0.262259,1.3625438 q -0.05125,0.3436504 -0.08742,0.6903153 -0.03617,0.3436504 -0.06029,0.6661995 -0.0211,0.3225491 -0.03316,0.6119389 -0.009,0.2863754 -0.009,0.5184901 0,0.3135057 0.009,0.5395915 0.009,0.2230713 0.03014,0.3768097 0.0211,0.1537383 0.05125,0.2471871 0.03316,0.090434 0.07838,0.1416805 0.04823,0.048232 0.108521,0.063304 0.0633,0.015072 0.14168,0.015072 0.144695,0 0.310492,-0.042203 0.16881,-0.045217 0.340636,-0.1235936 l 0.05727,0.1567529 q -0.108522,0.08742 -0.274318,0.1778541 -0.162782,0.090434 -0.34365,0.1657963 -0.180869,0.075362 -0.355709,0.1205791 -0.171825,0.048232 -0.298433,0.048232 -0.08441,0 -0.153738,-0.015072 -0.06933,-0.012058 -0.126608,-0.066319 -0.05426,-0.054261 -0.09948,-0.1597673 -0.0422,-0.1055067 -0.07235,-0.2863753 -0.02713,-0.1808687 -0.0422,-0.4521717 -0.01507,-0.2713029 -0.01507,-0.657156 0,-0.2260858 0.003,-0.5094467 0.006,-0.2863754 0.01507,-0.6119389 0.009,-0.3285781 0.02412,-0.6903154 0.01507,-0.3647517 0.03919,-0.7506049 0.006,-0.084405 0.04522,-0.1356514 0.03919,-0.054261 0.09646,-0.081391 0.05727,-0.030145 0.120579,-0.039188 0.06632,-0.012058 0.120579,-0.012058 0.20197,0 0.379824,0.093449 z"
         style="fill:#1b628e;fill-opacity:1;stroke-width:0.264584"
         id="path2419" />
      <path
         d="m 26.538561,4.0671414 q 0,-0.2381437 -0.07838,-0.4129834 Q 26.381808,3.4793183 26.2552,3.3677826 26.128592,3.256247 25.968825,3.2019864 25.809058,3.1477258 25.64929,3.1477258 q -0.214027,0 -0.361737,0.045217 -0.147709,0.045217 -0.241158,0.1235936 -0.09043,0.078376 -0.132637,0.1868976 -0.03919,0.1055067 -0.03919,0.2291003 0,0.1446949 0.05125,0.2924043 0.05426,0.1446949 0.156753,0.2833609 l -0.01206,0.033159 q -0.171825,0.084405 -0.346665,0.084405 -0.102492,0 -0.192927,-0.030145 -0.08742,-0.033159 -0.153738,-0.093449 -0.0633,-0.060289 -0.102492,-0.1477093 -0.03617,-0.08742 -0.03617,-0.1959411 0,-0.1778542 0.08441,-0.334607 0.08742,-0.1567528 0.229101,-0.2863753 0.14168,-0.1296226 0.328578,-0.2321148 0.186897,-0.1024922 0.385853,-0.1718252 0.198955,-0.072347 0.397911,-0.1085212 0.20197,-0.039188 0.373795,-0.039188 0.31652,0 0.539591,0.084405 0.226086,0.084405 0.364752,0.2471871 0.141681,0.1597673 0.204985,0.3888676 0.06632,0.2291003 0.06632,0.5184901 0,0.1989555 -0.01809,0.4370992 -0.01507,0.2381438 -0.03617,0.5004033 -0.0211,0.2592451 -0.03919,0.536577 -0.01507,0.2773319 -0.01507,0.5516494 0,0.4340847 0.159767,0.6541416 0.162782,0.2170423 0.425042,0.2170423 0.232114,0 0.51849,-0.1718252 l 0.08742,0.1296226 Q 28.094044,7.0816175 27.8559,7.1871243 27.617756,7.292631 27.355497,7.292631 q -0.195941,0 -0.361738,-0.066319 -0.165796,-0.066318 -0.286375,-0.1959411 -0.120579,-0.132637 -0.186898,-0.3315925 -0.06632,-0.1989555 -0.06632,-0.461215 0,-0.078377 0.003,-0.1567529 0.006,-0.078376 0.0211,-0.1657962 h -0.01809 q -0.129623,0.259245 -0.301448,0.5124611 -0.168811,0.2502017 -0.373795,0.4491572 -0.20197,0.195941 -0.434085,0.3165201 -0.2291,0.1235936 -0.482316,0.1235936 -0.207999,0 -0.379824,-0.072348 -0.171826,-0.072347 -0.295419,-0.1989555 -0.120579,-0.126608 -0.189912,-0.2984333 -0.06632,-0.1748396 -0.06632,-0.3798241 0,-0.265274 0.09646,-0.4823164 0.09948,-0.2170424 0.271303,-0.3888676 0.174839,-0.1718252 0.415997,-0.2954188 0.241159,-0.126608 0.524519,-0.2079989 0.283361,-0.084405 0.599881,-0.1235936 0.316521,-0.042203 0.645099,-0.042203 0.0211,-0.1899121 0.03316,-0.3677662 0.01507,-0.1778542 0.01507,-0.3918821 z m -1.850889,2.070946 q 0,0.1175646 0.02412,0.2260858 0.02713,0.1055067 0.08139,0.1868976 0.05728,0.081391 0.14168,0.1296225 0.08742,0.045217 0.207999,0.045217 0.135652,0 0.280347,-0.063304 0.144695,-0.063304 0.283361,-0.1748397 0.14168,-0.1115357 0.268288,-0.265274 0.129623,-0.1567529 0.232115,-0.340636 0.102492,-0.1838831 0.168811,-0.3858531 0.06933,-0.2049845 0.09043,-0.4190124 -0.223072,0.00603 -0.443128,0.030145 -0.220057,0.021101 -0.419013,0.069333 -0.195941,0.048232 -0.364751,0.1266081 -0.168811,0.078376 -0.292405,0.195941 -0.120579,0.1145501 -0.189912,0.2743174 -0.06933,0.1567529 -0.06933,0.3647518 z"
         style="fill:#1b628e;fill-opacity:1;stroke-width:0.264584"
         id="path2421" />
    </g>
  </g>
</svg>
