<?xml version="1.0" encoding="UTF-8" standalone="no"?>
<svg
   xmlns:dc="http://purl.org/dc/elements/1.1/"
   xmlns:cc="http://creativecommons.org/ns#"
   xmlns:rdf="http://www.w3.org/1999/02/22-rdf-syntax-ns#"
   xmlns:svg="http://www.w3.org/2000/svg"
   xmlns="http://www.w3.org/2000/svg"
   xmlns:sodipodi="http://sodipodi.sourceforge.net/DTD/sodipodi-0.dtd"
   xmlns:inkscape="http://www.inkscape.org/namespaces/inkscape"
   inkscape:version="1.0 (4035a4f, 2020-05-01)"
   sodipodi:docname="nav/logo.svg"
   id="svg8"
   version="1.1"
   viewBox="0 0 38.893774 7.4083338"
   height="28"
   width="147">
  <defs
     id="defs2" />
  <sodipodi:namedview
     units="px"
     inkscape:window-maximized="1"
     inkscape:window-y="23"
     inkscape:window-x="0"
     inkscape:window-height="1035"
     inkscape:window-width="1920"
     showgrid="false"
     inkscape:document-rotation="0"
     inkscape:current-layer="layer1"
     inkscape:document-units="mm"
     inkscape:cy="39.079656"
     inkscape:cx="33.369026"
     inkscape:zoom="5.6568542"
     inkscape:pageshadow="2"
     inkscape:pageopacity="0.0"
     borderopacity="1.0"
     bordercolor="#666666"
     pagecolor="#ffffff"
     id="base" />
  <metadata
     id="metadata5">
    <rdf:RDF>
      <cc:Work
         rdf:about="">
        <dc:format>image/svg+xml</dc:format>
        <dc:type
           rdf:resource="http://purl.org/dc/dcmitype/StillImage" />
        <dc:title />
      </cc:Work>
    </rdf:RDF>
  </metadata>
  <g
     style="display:none"
     inkscape:label="다크"
     id="layer2"
     inkscape:groupmode="layer">
    <rect
       y="0"
       x="0"
       height="7.4083333"
       width="38.893749"
       id="rect839"
       style="fill:#111111;fill-opacity:1;stroke-width:0.045;stroke-miterlimit:4;stroke-dasharray:none" />
  </g>
  <g
     inkscape:label="다크-DH"
     inkscape:groupmode="layer"
     id="g847"
     style="display:none">
    <g
       aria-label="DH"
       id="text845"
       style="font-style:normal;font-variant:normal;font-weight:normal;font-stretch:normal;font-size:9.525px;line-height:1.25;font-family:Impact;-inkscape-font-specification:'Impact, Normal';font-variant-ligatures:normal;font-variant-caps:normal;font-variant-numeric:normal;font-variant-east-asian:normal;letter-spacing:0px;word-spacing:0px;fill:#a04040;fill-opacity:1;stroke:none;stroke-width:0.264583;stroke-opacity:1">
      <path
         d="m 0,1.1082739e-7 h 1.4650268 q 1.418518,0 1.916162,0.13022459917261 0.5022949,0.13022461 0.7627441,0.42788085 0.2604492,0.29765624 0.3255615,0.66507564 0.065112,0.3627686 0.065112,1.4324707 v 2.6370482 q 0,1.0138916 -0.097668,1.3580566 Q 4.3439204,6.9902708 4.106726,7.1856077 3.8695312,7.3762938 3.5207153,7.4553587 3.1718994,7.5297727 2.4696167,7.5297727 H 0 Z M 1.9580199,1.2882935 v 4.9531859 q 0.42323,0 0.5208985,-0.1674317 0.097668,-0.1720825 0.097668,-0.9255248 V 2.2231201 q 0,-0.5115966 -0.032556,-0.6557739 Q 2.5114745,1.423169 2.3952025,1.3580567 2.2789306,1.2882935 1.9580199,1.2882935 Z"
         id="path564" />
      <path
         d="M 9.7668454,1.1082739e-7 V 7.5297728 H 7.8088255 V 4.3671752 H 7.2228148 v 3.1625976 h -1.95802 V 1.1082739e-7 h 1.95802 V 2.6928589 H 7.8088255 V 1.1082739e-7 Z"
         id="path566" />
    </g>
  </g>
  <g
     style="display:none"
     id="g853"
     inkscape:groupmode="layer"
     inkscape:label="다크-ANT">
    <g
       aria-label="ANT"
       id="text851"
       style="font-style:normal;font-variant:normal;font-weight:normal;font-stretch:normal;font-size:9.525px;line-height:1.25;font-family:Impact;-inkscape-font-specification:'Impact, Normal';font-variant-ligatures:normal;font-variant-caps:normal;font-variant-numeric:normal;font-variant-east-asian:normal;letter-spacing:0px;word-spacing:0px;fill:#4a5491;fill-opacity:1;stroke:none;stroke-width:0.264583">
      <path
         d="M 13.927673,1.1082739e-7 15.048535,7.5297728 H 13.044006 L 12.946338,6.1763671 H 12.244055 L 12.127783,7.5297728 H 10.1 L 11.095288,1.1082739e-7 Z M 12.890527,4.8415649 Q 12.741699,3.5625732 12.592871,1.6836182 12.295215,3.8416259 12.220801,4.8415649 Z"
         id="path569" />
      <path
         d="M 19.755224,1.1082739e-7 V 7.5297728 H 18.03905 L 17.020508,4.106726 v 3.4230468 h -1.63711 V 1.1082739e-7 h 1.63711 L 18.118115,3.3904907 V 1.1082739e-7 Z"
         id="path571" />
      <path
         d="M 24.480517,1.1082739e-7 V 1.5068848 h -1.16272 v 6.022888 h -1.95802 V 1.5068848 H 20.201708 V 1.1082739e-7 Z"
         id="path573" />
    </g>
  </g>
  <g
     inkscape:label="다크-NET"
     inkscape:groupmode="layer"
     id="g859"
     style="display:none;opacity:1">
    <g
       aria-label=".NET"
       transform="scale(0.9999849,1.0000151)"
       id="text857"
       style="font-style:normal;font-variant:normal;font-weight:normal;font-stretch:normal;font-size:9.52514px;line-height:1.25;font-family:Impact;-inkscape-font-specification:'Impact, Normal';font-variant-ligatures:normal;font-variant-caps:normal;font-variant-numeric:normal;font-variant-east-asian:normal;letter-spacing:0px;word-spacing:0px;fill:#585858;fill-opacity:1;stroke:none;stroke-width:0.265;stroke-miterlimit:4;stroke-dasharray:none">
      <path
         d="M 25.418901,5.9950737 V 7.5298862 H 24.000362 V 5.9950737 Z"
         style="fill:#585858;fill-opacity:1;stroke-width:0.265;stroke-miterlimit:4;stroke-dasharray:none"
         id="path576" />
      <path
         d="M 30.362858,2.7739443e-6 V 7.5298862 h -1.7162 L 27.628101,4.1067891 V 7.5298862 H 25.990967 V 2.7739443e-6 h 1.637134 L 28.725724,3.3905433 V 2.7739443e-6 Z"
         style="fill:#585858;fill-opacity:1;stroke-width:0.265;stroke-miterlimit:4;stroke-dasharray:none"
         id="path578" />
      <path
         d="m 31.144217,2.7739443e-6 h 3.264965 V 1.5069097 h -1.306917 v 1.4278407 h 1.2232 v 1.4324918 h -1.2232 v 1.6557372 h 1.437143 v 1.5069068 h -3.395191 z"
         style="fill:#585858;fill-opacity:1;stroke-width:0.265;stroke-miterlimit:4;stroke-dasharray:none"
         id="path580" />
      <path
         d="M 39.050826,2.7739443e-6 V 1.5069097 H 37.88809 V 7.5298862 H 35.930041 V 1.5069097 H 34.771955 V 2.7739443e-6 Z"
         style="fill:#585858;fill-opacity:1;stroke-width:0.265;stroke-miterlimit:4;stroke-dasharray:none"
         id="path582" />
    </g>
  </g>
  <g
     style="display:inline"
     id="layer1"
     inkscape:groupmode="layer"
     inkscape:label="라이트-DH">
    <g
       style="font-style:normal;font-variant:normal;font-weight:normal;font-stretch:normal;font-size:9.525px;line-height:1.25;font-family:Impact;-inkscape-font-specification:'Impact, Normal';font-variant-ligatures:normal;font-variant-caps:normal;font-variant-numeric:normal;font-variant-east-asian:normal;letter-spacing:0px;word-spacing:0px;fill:#af3232;fill-opacity:1;stroke:none;stroke-width:0.264583;stroke-opacity:1"
       id="text1404"
       aria-label="DH">
      <path
         id="path98"
         d="m 0,1.1082739e-7 h 1.4650268 q 1.418518,0 1.916162,0.13022459917261 0.5022949,0.13022461 0.7627441,0.42788085 0.2604492,0.29765624 0.3255615,0.66507564 0.065112,0.3627686 0.065112,1.4324707 v 2.6370482 q 0,1.0138916 -0.097668,1.3580566 -0.093018,0.3395141 -0.3302124,0.534851 -0.2371948,0.1906861 -0.5860107,0.269751 -0.3488159,0.074414 -1.0510986,0.074414 H 0 Z M 1.9580199,1.2882935 v 4.9531859 q 0.42323,0 0.5208985,-0.1674317 0.097668,-0.1720825 0.097668,-0.9255248 V 2.2231201 q 0,-0.5115966 -0.032556,-0.6557739 Q 2.5114745,1.423169 2.3952025,1.3580567 2.2789306,1.2882935 1.9580199,1.2882935 Z" />
      <path
         id="path100"
         d="M 9.7668454,1.1082739e-7 V 7.5297728 H 7.8088255 V 4.3671752 H 7.2228148 v 3.1625976 h -1.95802 V 1.1082739e-7 h 1.95802 V 2.6928589 H 7.8088255 V 1.1082739e-7 Z" />
    </g>
  </g>
  <g
     inkscape:label="라이트-ANT"
     inkscape:groupmode="layer"
     id="g1424"
     style="display:inline">
    <g
       aria-label="ANT"
       id="text1422"
       style="font-style:normal;font-variant:normal;font-weight:normal;font-stretch:normal;font-size:9.525px;line-height:1.25;font-family:Impact;-inkscape-font-specification:'Impact, Normal';font-variant-ligatures:normal;font-variant-caps:normal;font-variant-numeric:normal;font-variant-east-asian:normal;letter-spacing:0px;word-spacing:0px;fill:#3f52ad;fill-opacity:1;stroke:none;stroke-width:0.264583">
      <path
         d="M 13.927673,1.1082739e-7 15.048535,7.5297728 H 13.044006 L 12.946338,6.1763671 H 12.244055 L 12.127783,7.5297728 H 10.1 L 11.095288,1.1082739e-7 Z M 12.890527,4.8415649 Q 12.741699,3.5625732 12.592871,1.6836182 12.295215,3.8416259 12.220801,4.8415649 Z"
         id="path734" />
      <path
         d="M 19.755224,1.1082739e-7 V 7.5297728 H 18.03905 L 17.020508,4.106726 v 3.4230468 h -1.63711 V 1.1082739e-7 h 1.63711 L 18.118115,3.3904907 V 1.1082739e-7 Z"
         id="path736" />
      <path
         d="M 24.480517,1.1082739e-7 V 1.5068848 h -1.16272 v 6.022888 h -1.95802 V 1.5068848 H 20.201708 V 1.1082739e-7 Z"
         id="path738" />
    </g>
  </g>
  <g
     style="display:inline"
     id="g1432"
     inkscape:groupmode="layer"
     inkscape:label="라이트-NET">
    <g
       aria-label=".NET"
       transform="scale(0.9999849,1.0000151)"
       id="text1430"
       style="font-style:normal;font-variant:normal;font-weight:normal;font-stretch:normal;font-size:9.52514px;line-height:1.25;font-family:Impact;-inkscape-font-specification:'Impact, Normal';font-variant-ligatures:normal;font-variant-caps:normal;font-variant-numeric:normal;font-variant-east-asian:normal;letter-spacing:0px;word-spacing:0px;fill:#3d3d3d;fill-opacity:1;stroke:none;stroke-width:0.265004;stroke-miterlimit:4;stroke-dasharray:none">
      <path
         d="M 25.418901,5.9950737 V 7.5298862 H 24.000362 V 5.9950737 Z"
         style="stroke-width:0.265004"
         id="path741" />
      <path
         d="M 30.362858,2.7739443e-6 V 7.5298862 h -1.7162 L 27.628101,4.1067891 V 7.5298862 H 25.990967 V 2.7739443e-6 h 1.637134 L 28.725724,3.3905433 V 2.7739443e-6 Z"
         style="stroke-width:0.265004"
         id="path743" />
      <path
         d="m 31.144217,2.7739443e-6 h 3.264965 V 1.5069097 h -1.306917 v 1.4278407 h 1.2232 v 1.4324918 h -1.2232 v 1.6557372 h 1.437143 v 1.5069068 h -3.395191 z"
         style="stroke-width:0.265004"
         id="path745" />
      <path
         d="M 39.050826,2.7739443e-6 V 1.5069097 H 37.88809 V 7.5298862 H 35.930041 V 1.5069097 H 34.771955 V 2.7739443e-6 Z"
         style="stroke-width:0.265004"
         id="path747" />
    </g>
  </g>
</svg>
