<?xml version="1.0" encoding="UTF-8" standalone="no"?>
<svg
   inkscape:version="1.1 (c68e22c387, 2021-05-23)"
   sodipodi:docname="logo.svg"
   id="svg8"
   version="1.1"
   viewBox="0 0 29.633355 7.4083338"
   height="28"
   width="112"
   xmlns:inkscape="http://www.inkscape.org/namespaces/inkscape"
   xmlns:sodipodi="http://sodipodi.sourceforge.net/DTD/sodipodi-0.dtd"
   xmlns="http://www.w3.org/2000/svg"
   xmlns:svg="http://www.w3.org/2000/svg"
   xmlns:rdf="http://www.w3.org/1999/02/22-rdf-syntax-ns#"
   xmlns:cc="http://creativecommons.org/ns#"
   xmlns:dc="http://purl.org/dc/elements/1.1/">
  <defs
     id="defs2" />
  <sodipodi:namedview
     units="px"
     inkscape:window-maximized="0"
     inkscape:window-y="1255"
     inkscape:window-x="1117"
     inkscape:window-height="1731"
     inkscape:window-width="2309"
     showgrid="false"
     inkscape:document-rotation="0"
     inkscape:current-layer="g17527"
     inkscape:document-units="px"
     inkscape:cy="39.156038"
     inkscape:cx="25.897786"
     inkscape:zoom="5.6568542"
     inkscape:pageshadow="2"
     inkscape:pageopacity="0.0"
     borderopacity="1.0"
     bordercolor="#666666"
     pagecolor="#ffffff"
     id="base"
     inkscape:snap-text-baseline="false"
     inkscape:pagecheckerboard="0"
     width="125px" />
  <metadata
     id="metadata5">
    <rdf:RDF>
      <cc:Work
         rdf:about="">
        <dc:format>image/svg+xml</dc:format>
        <dc:type
           rdf:resource="http://purl.org/dc/dcmitype/StillImage" />
      </cc:Work>
    </rdf:RDF>
  </metadata>
  <g
     inkscape:groupmode="layer"
     id="g4365"
     inkscape:label="TEXT"
     style="display:none">
    <text
       xml:space="preserve"
       style="font-style:normal;font-variant:normal;font-weight:300;font-stretch:normal;font-size:7.40834px;line-height:1.25;font-family:'Encode Sans SC';-inkscape-font-specification:'Encode Sans SC, Light';font-variant-ligatures:normal;font-variant-caps:normal;font-variant-numeric:normal;font-variant-east-asian:normal;fill:#343434;fill-opacity:1;stroke:none;stroke-width:0.264584"
       x="0.1806764"
       y="6.9469891"
       id="text4363"><tspan
         sodipodi:role="line"
         id="tspan4361"
         x="0.1806764"
         y="6.9469891"
         style="font-style:normal;font-variant:normal;font-weight:300;font-stretch:normal;font-size:7.40834px;font-family:'Encode Sans SC';-inkscape-font-specification:'Encode Sans SC, Light';font-variant-ligatures:normal;font-variant-caps:normal;font-variant-numeric:normal;font-variant-east-asian:normal;fill:#343434;fill-opacity:1;stroke-width:0.264584"><tspan
           style="font-style:normal;font-variant:normal;font-weight:300;font-stretch:normal;font-size:7.40834px;font-family:'Encode Sans SC';-inkscape-font-specification:'Encode Sans SC, Light';font-variant-ligatures:normal;font-variant-caps:normal;font-variant-numeric:normal;font-variant-east-asian:normal;fill:#0055aa;fill-opacity:1;stroke-width:0.264584"
           id="tspan4357">ANI</tspan><tspan
           style="font-style:normal;font-variant:normal;font-weight:300;font-stretch:normal;font-size:7.40834px;font-family:'Encode Sans SC';-inkscape-font-specification:'Encode Sans SC, Light';font-variant-ligatures:normal;font-variant-caps:normal;font-variant-numeric:normal;font-variant-east-asian:normal;fill:#0066bb;fill-opacity:1;stroke-width:0.264584"
           id="tspan4359">SSIA</tspan></tspan></text>
  </g>
  <g
     inkscape:groupmode="layer"
     id="g17527"
     inkscape:label="TEXT 복사 1"
     style="display:inline">
    <g
       aria-label="ANISSIA"
       id="text17525"
       style="font-weight:300;font-size:7.40834px;line-height:1.25;font-family:'Encode Sans SC';-inkscape-font-specification:'Encode Sans SC, Light';fill:#343434;stroke-width:0.264584">
      <path
         d="M 0.29920984,6.9469891 2.3216867,1.4648175 H 2.9291705 L 4.9516473,6.9469891 H 4.4923303 L 2.5735702,1.6907718 h 0.096308 L 0.75111858,6.9469891 Z M 1.2808149,5.0911999 1.39194,4.702262 h 2.4706814 l 0.1074209,0.3889379 z"
         style="fill:#0055aa"
         id="path17529" />
      <path
         d="M 5.736928,6.9469891 V 1.4648175 H 6.1999492 L 9.4966605,6.4691511 H 9.3633104 V 1.4648175 H 9.7855858 V 6.9469891 H 9.3188604 L 6.0258533,1.9426554 h 0.1333501 v 5.0043337 z"
         style="fill:#0055aa"
         id="path17531" />
      <path
         d="M 11.107963,6.9469891 V 1.4648175 h 0.440796 v 5.4821716 z"
         style="fill:#0055aa"
         id="path17533" />
      <path
         d="m 13.882376,7.0136641 q -0.307446,0 -0.648229,-0.055562 -0.340784,-0.051858 -0.655638,-0.1592793 V 6.4024761 q 0.229658,0.074083 0.455612,0.1259418 0.225955,0.048154 0.440797,0.074083 0.218546,0.022225 0.418571,0.022225 0.714905,0 1.066801,-0.2778128 0.351896,-0.2815169 0.351896,-0.8260299 0,-0.4593171 -0.270404,-0.7000881 Q 14.775081,4.5800244 14.149077,4.4133368 L 13.882376,4.3466617 Q 13.189697,4.1688616 12.845209,3.8132612 12.504425,3.4576609 12.504425,2.8761062 q 0,-0.6852714 0.47043,-1.0816176 0.470429,-0.3963462 1.396472,-0.3963462 0.303742,0 0.607484,0.040746 0.307446,0.040746 0.559329,0.1222376 v 0.4000504 q -0.285221,-0.0889 -0.57785,-0.129646 -0.288925,-0.04445 -0.585259,-0.04445 -0.481542,0 -0.796397,0.1259417 -0.314854,0.1222377 -0.466725,0.3630087 -0.151871,0.2370669 -0.151871,0.5741464 0,0.4445004 0.244475,0.6889756 0.244476,0.2444752 0.840847,0.4037545 l 0.2667,0.066675 q 0.500063,0.1259417 0.822326,0.3259669 0.322263,0.196321 0.477838,0.4852463 0.155575,0.2852211 0.155575,0.6778631 0,0.4852463 -0.22225,0.8260299 -0.218546,0.3370795 -0.640822,0.5148796 -0.422275,0.174096 -1.022351,0.174096 z"
         style="fill:#0066bb"
         id="path17535" />
      <path
         d="m 17.731001,7.0136641 q -0.307446,0 -0.64823,-0.055562 -0.340784,-0.051858 -0.655638,-0.1592793 V 6.4024761 q 0.229658,0.074083 0.455613,0.1259418 0.225954,0.048154 0.440796,0.074083 0.218546,0.022225 0.418571,0.022225 0.714905,0 1.066801,-0.2778128 0.351896,-0.2815169 0.351896,-0.8260299 0,-0.4593171 -0.270404,-0.7000881 -0.2667,-0.2407711 -0.892705,-0.4074587 l -0.2667,-0.066675 q -0.69268,-0.1778001 -1.037168,-0.5334005 -0.340784,-0.3556003 -0.340784,-0.937155 0,-0.6852714 0.47043,-1.0816176 0.47043,-0.3963462 1.396472,-0.3963462 0.303742,0 0.607484,0.040746 0.307446,0.040746 0.55933,0.1222376 v 0.4000504 q -0.285221,-0.0889 -0.577851,-0.129646 -0.288925,-0.04445 -0.585259,-0.04445 -0.481542,0 -0.796396,0.1259417 -0.314855,0.1222377 -0.466726,0.3630087 -0.151871,0.2370669 -0.151871,0.5741464 0,0.4445004 0.244476,0.6889756 0.244475,0.2444752 0.840846,0.4037545 l 0.2667,0.066675 q 0.500063,0.1259417 0.822326,0.3259669 0.322263,0.196321 0.477838,0.4852463 0.155575,0.2852211 0.155575,0.6778631 0,0.4852463 -0.22225,0.8260299 -0.218546,0.3370795 -0.640821,0.5148796 -0.422276,0.174096 -1.022351,0.174096 z"
         style="fill:#0066bb"
         id="path17537" />
      <path
         d="M 20.57209,6.9469891 V 1.4648175 h 0.440796 v 5.4821716 z"
         style="fill:#0066bb"
         id="path17539" />
      <path
         d="m 21.794457,6.9469891 2.022477,-5.4821716 h 0.607483 l 2.022477,5.4821716 h -0.459317 l -1.91876,-5.2562173 h 0.09631 L 22.246365,6.9469891 Z M 22.776062,5.0911999 22.887187,4.702262 h 2.470681 l 0.107421,0.3889379 z"
         style="fill:#0066bb"
         id="path17541" />
    </g>
  </g>
</svg>
