<?xml version="1.0" encoding="UTF-8" standalone="no"?>
<!-- Generator: Adobe Illustrator 19.0.0, SVG Export Plug-In . SVG Version: 6.00 Build 0)  -->

<svg
   xmlns:dc="http://purl.org/dc/elements/1.1/"
   xmlns:cc="http://creativecommons.org/ns#"
   xmlns:rdf="http://www.w3.org/1999/02/22-rdf-syntax-ns#"
   xmlns:svg="http://www.w3.org/2000/svg"
   xmlns="http://www.w3.org/2000/svg"
   xmlns:sodipodi="http://sodipodi.sourceforge.net/DTD/sodipodi-0.dtd"
   xmlns:inkscape="http://www.inkscape.org/namespaces/inkscape"
   version="1.1"
   id="Capa_1"
   x="0px"
   y="0px"
   viewBox="0 0 448 448"
   style="enable-background:new 0 0 448 448;"
   xml:space="preserve"
   inkscape:version="0.92.4 (5da689c313, 2019-01-14)"><metadata
   id="metadata73"><rdf:RDF><cc:Work
       rdf:about=""><dc:format>image/svg+xml</dc:format><dc:type
         rdf:resource="http://purl.org/dc/dcmitype/StillImage" /></cc:Work></rdf:RDF></metadata><defs
   id="defs71" /><sodipodi:namedview
   pagecolor="#ffffff"
   bordercolor="#666666"
   borderopacity="1"
   objecttolerance="10"
   gridtolerance="10"
   guidetolerance="10"
   inkscape:pageopacity="0"
   inkscape:pageshadow="2"
   inkscape:window-width="1826"
   inkscape:window-height="1017"
   id="namedview69"
   showgrid="false"
   inkscape:zoom="0.52678571"
   inkscape:cx="-12.338983"
   inkscape:cy="224"
   inkscape:window-x="1793"
   inkscape:window-y="569"
   inkscape:window-maximized="0"
   inkscape:current-layer="Capa_1" />
<path
   style="fill:#2c5fa4;stroke-width:0.99348527"
   d="M 80,337.45455 H 48 c -17.68,0 -32,-14.13403 -32,-31.58442 0,-17.45039 14.32,-31.58442 32,-31.58442 h 32 z"
   id="path2"
   inkscape:connector-curvature="0" />
<rect
   x="80"
   y="290.07791"
   style="fill:#92a2b3;stroke-width:0.99348527"
   width="288"
   height="31.584415"
   id="rect4" />
<path
   style="fill:#dde4ea;stroke-width:0.99348527"
   d="m 182.048,123.13849 -82.56,221.28042 c -7.296,19.55075 -2.4,41.48613 12.512,56.20447 V 448 L 223.936,147.94805 c -18.16,-0.0316 -33.76,-10.1228 -41.888,-24.80956 z"
   id="path6"
   inkscape:connector-curvature="0" />
<path
   style="fill:#c0ced8;stroke-width:0.99348527"
   d="m 265.952,123.13849 82.56,221.28042 c 7.296,19.55075 2.4,41.48613 -12.512,56.20447 V 448 L 224.064,147.94805 c 18.16,-0.0316 33.76,-10.1228 41.888,-24.80956 z"
   id="path8"
   inkscape:connector-curvature="0" />
<path
   style="fill:#2c5fa4;stroke-width:0.88985443"
   d="M 240,53.194805 H 208 V 27.855896 c 0,-6.99354 7.168,-12.669455 16,-12.669455 8.832,0 16,5.675915 16,12.669455 z"
   id="path10"
   inkscape:connector-curvature="0" />
<g
   id="g16"
   transform="matrix(1,0,0,0.98701299,0,5.8181818)">
	<path
   style="fill:#dde4ea"
   d="m 224,32 c -35.344,0 -64,28.656 -64,64 0,35.344 28.656,64 64,64 35.344,0 64,-28.656 64,-64 0,-35.344 -28.656,-64 -64,-64 z m 0,88 c -13.248,0 -24,-10.752 -24,-24 0,-13.248 10.752,-24 24,-24 13.248,0 24,10.752 24,24 0,13.248 -10.752,24 -24,24 z"
   id="path12"
   inkscape:connector-curvature="0" />
	<rect
   x="208"
   y="256"
   style="fill:#dde4ea"
   width="32"
   height="96"
   id="rect14" />
</g>
<g
   id="g24"
   transform="matrix(1,0,0,0.98701299,0,5.8181818)">
	<rect
   x="208"
   y="336"
   style="fill:#c0ced8"
   width="32"
   height="16"
   id="rect18" />
	<rect
   x="208"
   y="304"
   style="fill:#c0ced8"
   width="32"
   height="16"
   id="rect20" />
	<rect
   x="208"
   y="272"
   style="fill:#c0ced8"
   width="32"
   height="16"
   id="rect22" />
</g>
<path
   style="fill:#2c5fa4;stroke-width:0.99348527"
   d="m 368,337.45455 h 32 c 17.68,0 32,-14.13403 32,-31.58442 0,-17.45039 -14.32,-31.58442 -32,-31.58442 h -32 z"
   id="path26"
   inkscape:connector-curvature="0" />
<ellipse
   style="fill:#dde4ea;stroke-width:0.99348527"
   cx="328"
   cy="363.35376"
   id="circle28"
   rx="12"
   ry="11.844156" />
<ellipse
   style="fill:#c0ced8;stroke-width:0.99348527"
   cx="120"
   cy="363.35376"
   id="circle30"
   rx="12"
   ry="11.844156" />
<g
   id="g36"
   transform="matrix(1,0,0,0.98701299,0,5.8181818)">
	<path
   style="fill:#92a2b3"
   d="M 112.224,400.32 112,448 125.872,410.304 c -5.024,-2.688 -9.68,-5.936 -13.648,-9.984 z"
   id="path32"
   inkscape:connector-curvature="0" />
	<path
   style="fill:#92a2b3"
   d="M 335.776,400.32 336,448 322.128,410.304 c 5.024,-2.688 9.68,-5.936 13.648,-9.984 z"
   id="path34"
   inkscape:connector-curvature="0" />
</g>
<g
   id="g38">
</g>
<g
   id="g40">
</g>
<g
   id="g42">
</g>
<g
   id="g44">
</g>
<g
   id="g46">
</g>
<g
   id="g48">
</g>
<g
   id="g50">
</g>
<g
   id="g52">
</g>
<g
   id="g54">
</g>
<g
   id="g56">
</g>
<g
   id="g58">
</g>
<g
   id="g60">
</g>
<g
   id="g62">
</g>
<g
   id="g64">
</g>
<g
   id="g66">
</g>
</svg>