<svg id="icons" enable-background="new 0 0 64 64" height="512" viewBox="0 0 64 64" width="512" xmlns="http://www.w3.org/2000/svg"><circle cx="32.001" cy="31.995" fill="#656d78" r="22"/><path d="m33.491 25.154-.49 2.971c-.319-.09-.649-.131-1-.131-.35 0-.68.041-1 .131l-.49-2.971-.489-2.959-.48-2.961-.49-2.959-.489-2.971-.49-2.961-.97-5.908c3.14-.561 6.43-.592 9.76 0h.03v.01l-.971 5.898-.489 2.961-.48 2.971-.49 2.959-.489 2.961z" fill="#ccd1d9"/><path d="m33.491 25.154c3.14.689 5.51 3.49 5.51 6.84 0 .75-.12 1.471-.34 2.141l-2.81-1.06c.1-.341.149-.7.149-1.081 0-1.859-1.279-3.43-3-3.869z" fill="#545c66"/><path d="m48.001 31.994c0-7.83-5.64-14.34-13.05-15.719l.48-2.971c8.84 1.619 15.569 9.369 15.569 18.689 0 2.241-.39 4.381-1.109 6.381l-2.801-1.06c.592-1.668.911-3.449.911-5.32z" fill="#545c66"/><path d="m37.171 36.705-2.319-1.9c.46-.479.819-1.069 1-1.729l2.81 1.06 2.811 1.061 2.81 1.06 2.81 1.061 2.801 1.06 2.81 1.05 5.61 2.12c-1.13 3.15-2.801 6.01-4.891 8.48l-.029-.021-4.62-3.79-2.32-1.899-2.32-1.9-2.319-1.91-2.32-1.899z" fill="#ccd1d9"/><g fill="#545c66"><path d="m22.001 31.994c0 1.121.181 2.191.521 3.201l-2.811 1.06c-.46-1.33-.71-2.76-.71-4.261 0-6.34 4.54-11.609 10.54-12.76l.48 2.961-.04.01c-4.549.93-7.98 4.959-7.98 9.789z"/><path d="m16.001 31.994c0 1.871.32 3.661.9 5.321l-2.8 1.05c-.721-2-1.101-4.13-1.101-6.371 0-9.32 6.721-17.07 15.561-18.689l.489 2.971c-7.419 1.378-13.049 7.888-13.049 15.718z"/><path d="m31.001 28.125c-1.729.439-3 2.01-3 3.869 0 .371.05.74.15 1.081h-.01l-2.811 1.06v-.01c-.22-.67-.33-1.381-.33-2.131 0-3.35 2.36-6.16 5.51-6.84z"/><path d="m45.001 31.994c0 1.491-.26 2.931-.72 4.261l-2.81-1.06c.34-1 .529-2.08.529-3.201 0-4.84-3.46-8.879-8.029-9.799l.489-2.961c5.991 1.151 10.541 6.43 10.541 12.76z"/><path d="m46.451 44.315c-3.49 4.09-8.68 6.68-14.45 6.68-5.779 0-10.97-2.59-14.46-6.68l2.32-1.91c2.93 3.42 7.29 5.59 12.14 5.59 4.84 0 9.2-2.17 12.13-5.58z"/><path d="m32.001 35.995c1.11 0 2.12-.46 2.851-1.19l2.319 1.9c-1.279 1.41-3.12 2.29-5.17 2.29s-3.899-.88-5.189-2.29l2.33-1.91c.729.74 1.739 1.2 2.859 1.2z"/></g><path d="m35.852 33.075c-.181.66-.54 1.25-1 1.729-.73.73-1.74 1.19-2.851 1.19-1.12 0-2.13-.46-2.859-1.2-.46-.479-.811-1.06-.99-1.72-.101-.341-.15-.71-.15-1.081 0-1.859 1.271-3.43 3-3.869.32-.09.65-.131 1-.131.351 0 .681.041 1 .131 1.721.439 3 2.01 3 3.869-.001.382-.051.741-.15 1.082z" fill="#e6e9ed"/><path d="m41.812 40.505c-2.38 2.75-5.9 4.49-9.811 4.49-3.92 0-7.439-1.74-9.819-4.49l2.319-1.899c1.83 2.08 4.51 3.39 7.5 3.39 2.98 0 5.66-1.31 7.49-3.39z" fill="#545c66"/><path d="m26.812 36.705-2.311 1.9-2.319 1.899-2.32 1.9-2.32 1.91-2.319 1.89-4.641 3.81c-2.109-2.51-3.78-5.369-4.899-8.47l5.609-2.12 2.811-1.06 2.8-1.05 2.81-1.061 2.811-1.06 2.81-1.061 2.811-1.06h.01c.18.66.53 1.24.99 1.72z" fill="#ccd1d9"/><path d="m36.892 4.436c-.011 0-.021 0-.03 0-3.33-.592-6.62-.561-9.76 0-11.25 1.988-20.58 10.809-22.67 22.699-.891 5.01-.381 9.95 1.25 14.41 1.119 3.101 2.79 5.96 4.899 8.47 4.07 4.86 9.82 8.37 16.561 9.561 10.189 1.79 20.06-2.17 26.279-9.55 2.09-2.471 3.761-5.33 4.891-8.48.55-1.49.97-3.06 1.26-4.68 2.68-15.221-7.48-29.73-22.68-32.42zm-35.42 22.179c2.969-16.861 19.049-28.121 35.909-25.14 16.86 2.971 28.12 19.051 25.15 35.91-2.98 16.86-19.06 28.12-35.92 25.141-16.86-2.971-28.12-19.05-25.139-35.911z" fill="#e6e9ed"/><path d="m32.03 33c-.553 0-1.005-.448-1.005-1 0-.553.442-1 .994-1h.011c.552 0 1 .447 1 1 0 .552-.448 1-1 1z" fill="#ccd1d9"/></svg>