<?xml version="1.0" encoding="iso-8859-1"?>
<!-- Generator: Adobe Illustrator 19.0.0, SVG Export Plug-In . SVG Version: 6.00 Build 0)  -->
<svg version="1.1" id="Capa_1" xmlns="http://www.w3.org/2000/svg" xmlns:xlink="http://www.w3.org/1999/xlink" x="0px" y="0px"
	 viewBox="0 0 512 512" style="enable-background:new 0 0 512 512;" xml:space="preserve">
<path style="fill:#ECF0F1;" d="M484.423,512H27.577C12.35,512,0,499.65,0,484.423V380.681c0-15.228,12.35-27.577,27.577-27.577
	h456.836c15.236,0,27.586,12.35,27.586,27.577v103.733C512,499.65,499.65,512,484.423,512z"/>
<g>
	<path style="fill:#BDC3C7;" d="M61.793,512H44.138v-61.793c0-24.338,19.8-44.138,44.138-44.138h79.448v17.655H88.276
		c-14.601,0-26.483,11.882-26.483,26.483V512z"/>
	<path style="fill:#BDC3C7;" d="M467.862,512h-17.655v-61.793c0-14.601-11.882-26.483-26.483-26.483h-79.448v-17.655h79.448
		c24.338,0,44.138,19.8,44.138,44.138V512z"/>
</g>
<path style="fill:#95A5A5;" d="M344.276,459.034H167.724c-4.873,0-8.828-3.955-8.828-8.828v-35.31c0-4.873,3.955-8.828,8.828-8.828
	h176.552c4.873,0,8.828,3.955,8.828,8.828v35.31C353.103,455.08,349.149,459.034,344.276,459.034z"/>
<path style="fill:#35495E;" d="M467.862,353.103H44.138V200.457c0-13.197,10.708-23.905,23.905-23.905h375.905
	c13.206,0,23.914,10.708,23.914,23.905V353.103z"/>
<rect x="132.414" y="123.586" style="fill:#ECF0F1;" width="35.31" height="52.966"/>
<path style="fill:#35495E;" d="M234.673,123.586H65.465c-11.776,0-21.327-9.551-21.327-21.327V21.327
	C44.138,9.551,53.689,0,65.465,0h169.216C246.449,0,256,9.551,256,21.327v80.94C256,114.035,246.449,123.586,234.673,123.586z"/>
<g>
	<path style="fill:#FFFFFF;" d="M79.448,61.793c-2.26,0-4.52-0.865-6.241-2.586c-3.452-3.452-3.452-9.031,0-12.482l17.655-17.655
		c3.452-3.452,9.031-3.452,12.482,0s3.452,9.031,0,12.482L85.689,59.207C83.968,60.928,81.708,61.793,79.448,61.793z"/>
	<path style="fill:#FFFFFF;" d="M97.103,97.103c-4.873,0-8.828-3.955-8.828-8.828V35.31c0-4.873,3.955-8.828,8.828-8.828
		s8.828,3.955,8.828,8.828v52.966C105.931,93.149,101.976,97.103,97.103,97.103z"/>
	<path style="fill:#FFFFFF;" d="M150.069,61.793c-2.26,0-4.52-0.865-6.241-2.586c-3.452-3.452-3.452-9.031,0-12.482l17.655-17.655
		c3.452-3.452,9.031-3.452,12.482,0c3.452,3.452,3.452,9.031,0,12.482L156.31,59.207C154.589,60.928,152.329,61.793,150.069,61.793z
		"/>
	<path style="fill:#FFFFFF;" d="M167.724,97.103c-4.873,0-8.828-3.955-8.828-8.828V35.31c0-4.873,3.955-8.828,8.828-8.828
		s8.828,3.955,8.828,8.828v52.966C176.552,93.149,172.597,97.103,167.724,97.103z"/>
	<path style="fill:#FFFFFF;" d="M203.034,61.793c-2.26,0-4.52-0.865-6.241-2.586c-3.452-3.452-3.452-9.031,0-12.482l17.655-17.655
		c3.452-3.452,9.031-3.452,12.482,0c3.452,3.452,3.452,9.031,0,12.482l-17.655,17.655C207.554,60.928,205.294,61.793,203.034,61.793
		z"/>
	<path style="fill:#FFFFFF;" d="M220.69,97.103c-4.873,0-8.828-3.955-8.828-8.828V35.31c0-4.873,3.955-8.828,8.828-8.828
		c4.873,0,8.828,3.955,8.828,8.828v52.966C229.517,93.149,225.562,97.103,220.69,97.103z"/>
	<path style="fill:#FFFFFF;" d="M132.414,97.103c-4.873,0-8.828-3.955-8.828-8.828v-8.828c0-4.873,3.955-8.828,8.828-8.828
		c4.873,0,8.828,3.955,8.828,8.828v8.828C141.241,93.149,137.287,97.103,132.414,97.103z"/>
</g>
<path style="fill:#4C8056;" d="M238.345,326.621H79.448c-4.873,0-8.828-3.955-8.828-8.828V211.862c0-4.873,3.955-8.828,8.828-8.828
	h158.897c4.873,0,8.828,3.955,8.828,8.828v105.931C247.172,322.666,243.218,326.621,238.345,326.621z"/>
<g>
	<path style="fill:#6B88A1;" d="M308.966,220.69h-26.483c-4.873,0-8.828-3.955-8.828-8.828c0-4.873,3.955-8.828,8.828-8.828h26.483
		c4.873,0,8.828,3.955,8.828,8.828C317.793,216.735,313.838,220.69,308.966,220.69z"/>
	<path style="fill:#6B88A1;" d="M370.759,220.69h-26.483c-4.873,0-8.828-3.955-8.828-8.828c0-4.873,3.955-8.828,8.828-8.828h26.483
		c4.873,0,8.828,3.955,8.828,8.828C379.586,216.735,375.631,220.69,370.759,220.69z"/>
	<path style="fill:#6B88A1;" d="M432.552,220.69h-26.483c-4.873,0-8.828-3.955-8.828-8.828c0-4.873,3.955-8.828,8.828-8.828h26.483
		c4.873,0,8.828,3.955,8.828,8.828C441.379,216.735,437.425,220.69,432.552,220.69z"/>
	<path style="fill:#6B88A1;" d="M308.966,256h-26.483c-4.873,0-8.828-3.955-8.828-8.828c0-4.873,3.955-8.828,8.828-8.828h26.483
		c4.873,0,8.828,3.955,8.828,8.828C317.793,252.045,313.838,256,308.966,256z"/>
	<path style="fill:#6B88A1;" d="M370.759,256h-26.483c-4.873,0-8.828-3.955-8.828-8.828c0-4.873,3.955-8.828,8.828-8.828h26.483
		c4.873,0,8.828,3.955,8.828,8.828C379.586,252.045,375.631,256,370.759,256z"/>
	<path style="fill:#6B88A1;" d="M432.552,256h-26.483c-4.873,0-8.828-3.955-8.828-8.828c0-4.873,3.955-8.828,8.828-8.828h26.483
		c4.873,0,8.828,3.955,8.828,8.828C441.379,252.045,437.425,256,432.552,256z"/>
	<path style="fill:#6B88A1;" d="M308.966,291.31h-26.483c-4.873,0-8.828-3.955-8.828-8.828s3.955-8.828,8.828-8.828h26.483
		c4.873,0,8.828,3.955,8.828,8.828S313.838,291.31,308.966,291.31z"/>
	<path style="fill:#6B88A1;" d="M370.759,291.31h-26.483c-4.873,0-8.828-3.955-8.828-8.828s3.955-8.828,8.828-8.828h26.483
		c4.873,0,8.828,3.955,8.828,8.828S375.631,291.31,370.759,291.31z"/>
	<path style="fill:#6B88A1;" d="M432.552,291.31h-26.483c-4.873,0-8.828-3.955-8.828-8.828s3.955-8.828,8.828-8.828h26.483
		c4.873,0,8.828,3.955,8.828,8.828S437.425,291.31,432.552,291.31z"/>
	<path style="fill:#6B88A1;" d="M308.966,326.621h-26.483c-4.873,0-8.828-3.955-8.828-8.828c0-4.873,3.955-8.828,8.828-8.828h26.483
		c4.873,0,8.828,3.955,8.828,8.828C317.793,322.666,313.838,326.621,308.966,326.621z"/>
	<path style="fill:#6B88A1;" d="M370.759,326.621h-26.483c-4.873,0-8.828-3.955-8.828-8.828c0-4.873,3.955-8.828,8.828-8.828h26.483
		c4.873,0,8.828,3.955,8.828,8.828C379.586,322.666,375.631,326.621,370.759,326.621z"/>
	<path style="fill:#6B88A1;" d="M432.552,326.621h-26.483c-4.873,0-8.828-3.955-8.828-8.828c0-4.873,3.955-8.828,8.828-8.828h26.483
		c4.873,0,8.828,3.955,8.828,8.828C441.379,322.666,437.425,326.621,432.552,326.621z"/>
</g>
<g>
	<path style="fill:#73A67B;" d="M150.069,256h-35.31c-4.873,0-8.828-3.955-8.828-8.828c0-4.873,3.955-8.828,8.828-8.828h35.31
		c4.873,0,8.828,3.955,8.828,8.828C158.897,252.045,154.942,256,150.069,256z"/>
	<path style="fill:#73A67B;" d="M203.034,256h-17.655c-4.873,0-8.828-3.955-8.828-8.828c0-4.873,3.955-8.828,8.828-8.828h17.655
		c4.873,0,8.828,3.955,8.828,8.828C211.862,252.045,207.907,256,203.034,256z"/>
	<path style="fill:#73A67B;" d="M203.034,291.31h-35.31c-4.873,0-8.828-3.955-8.828-8.828s3.955-8.828,8.828-8.828h35.31
		c4.873,0,8.828,3.955,8.828,8.828S207.907,291.31,203.034,291.31z"/>
	<path style="fill:#73A67B;" d="M132.414,291.31h-17.655c-4.873,0-8.828-3.955-8.828-8.828s3.955-8.828,8.828-8.828h17.655
		c4.873,0,8.828,3.955,8.828,8.828S137.287,291.31,132.414,291.31z"/>
</g>
<g>
</g>
<g>
</g>
<g>
</g>
<g>
</g>
<g>
</g>
<g>
</g>
<g>
</g>
<g>
</g>
<g>
</g>
<g>
</g>
<g>
</g>
<g>
</g>
<g>
</g>
<g>
</g>
<g>
</g>
</svg>
