<svg id="Layer_3" enable-background="new 0 0 64 64" height="512" viewBox="0 0 64 64" width="512" xmlns="http://www.w3.org/2000/svg"><path d="m32 17c-.256 0-.512-.098-.707-.293l-14-14 1.414-1.414 13.293 13.293 13.293-13.293 1.414 1.414-14 14c-.195.195-.451.293-.707.293z" fill="#4d5d7a"/><path d="m16 54-2 4h36l-2-4" fill="#8892a0"/><path d="m2 22v26c0 3.314 2.686 6 6 6h48c3.314 0 6-2.686 6-6v-26c0-3.314-2.686-6-6-6h-48c-3.314 0-6 2.686-6 6z" fill="#4d5d7a"/><path d="m2 22v23.594c4.636 2.171 9.906 3.406 15.5 3.406 18.502 0 33.5-13.431 33.5-30 0-1.013-.058-2.013-.167-3h-42.833c-3.314 0-6 2.686-6 6z" fill="#8892a0"/><circle cx="56" cy="48" fill="#e47c6e" r="2"/><circle cx="56" cy="40" fill="#e47c6e" r="2"/><path d="m6 24v22c0 2.209 1.791 4 4 4h36c2.209 0 4-1.791 4-4v-22c0-2.209-1.791-4-4-4h-36c-2.209 0-4 1.791-4 4z" fill="#c7e2fc"/><path d="m6 24v19.203c3.268 1.783 7.015 2.797 11 2.797 12.703 0 23-10.297 23-23 0-1.018-.073-2.017-.201-3h-29.799c-2.209 0-4 1.791-4 4z" fill="#ebf7fe"/><path d="m2 60h60v2h-60z" fill="#4d5d7a"/></svg>