<?xml version="1.0" encoding="iso-8859-1"?>
<!-- Generator: Adobe Illustrator 19.0.0, SVG Export Plug-In . SVG Version: 6.00 Build 0)  -->
<svg fill="#4ea998" version="1.1" id="Capa_1" xmlns="http://www.w3.org/2000/svg" xmlns:xlink="http://www.w3.org/1999/xlink" x="0px" y="0px"
     viewBox="0 0 360 360" style="enable-background:new 0 0 360 360;" xml:space="preserve">
<g>
	<g>
		<path d="M219,120.5h-77c-5.523,0-10,4.477-10,10v185c0,5.523,4.477,10,10,10h77c5.523,0,10-4.477,10-10v-185
			C229,124.977,224.523,120.5,219,120.5z M208,305.5h-56v-165h56V305.5z"/>
	</g>
</g>
    <g>
	<g>
		<path d="M350,33.5h-77c-5.523,0-10,4.477-10,10v272c0,5.523,4.477,10,10,10h77c5.523,0,10-4.477,10-10v-272
			C360,37.977,355.523,33.5,350,33.5z M340,305.5h-57v-252h57V305.5z"/>
	</g>
</g>
    <g>
	<g>
		<path d="M87,181.5H10c-5.523,0-10,4.477-10,10v125c0,5.523,4.477,10,10,10h77c5.523,0,10-4.477,10-10v-125
			C97,185.977,92.523,181.5,87,181.5z M77,305.5H20v-104h57V305.5z"/>
	</g>
</g>
    <g>
</g>
    <g>
</g>
    <g>
</g>
    <g>
</g>
    <g>
</g>
    <g>
</g>
    <g>
</g>
    <g>
</g>
    <g>
</g>
    <g>
</g>
    <g>
</g>
    <g>
</g>
    <g>
</g>
    <g>
</g>
    <g>
</g>
</svg>
