<?xml version="1.0" encoding="UTF-8"?>
<svg width="112" height="28" version="1.1" viewBox="0 0 29.633 7.4083" xmlns="http://www.w3.org/2000/svg" xmlns:cc="http://creativecommons.org/ns#" xmlns:dc="http://purl.org/dc/elements/1.1/" xmlns:rdf="http://www.w3.org/1999/02/22-rdf-syntax-ns#">
 <metadata>
  <rdf:RDF>
   <cc:Work rdf:about="">
    <dc:format>image/svg+xml</dc:format>
    <dc:type rdf:resource="http://purl.org/dc/dcmitype/StillImage"/>
   </cc:Work>
  </rdf:RDF>
 </metadata>
 <g display="none">
  <text x="0.1806764" y="6.9469891" fill="#343434" font-family="'Encode Sans SC'" font-size="7.4083px" font-weight="300" stroke-width=".26458" style="font-variant-caps:normal;font-variant-east-asian:normal;font-variant-ligatures:normal;font-variant-numeric:normal;line-height:1.25" xml:space="preserve"><tspan x="0.1806764" y="6.9469891" font-family="'Encode Sans SC'" font-size="7.4083px" font-weight="300" stroke-width=".26458" style="font-variant-caps:normal;font-variant-east-asian:normal;font-variant-ligatures:normal;font-variant-numeric:normal"><tspan fill="#0055aa" style="font-variant-caps:normal;font-variant-east-asian:normal;font-variant-ligatures:normal;font-variant-numeric:normal">ANI</tspan><tspan fill="#0066bb" style="font-variant-caps:normal;font-variant-east-asian:normal;font-variant-ligatures:normal;font-variant-numeric:normal">SSIA</tspan></tspan></text>
 </g>
 <g>
  <g stroke-width=".26458" aria-label="ANISSIA">
   <g fill="#aaa">
    <path d="m0.29921 6.947 2.0225-5.4822h0.60748l2.0225 5.4822h-0.45932l-1.9188-5.2562h0.096308l-1.9188 5.2562zm0.98161-1.8558 0.11113-0.38894h2.4707l0.10742 0.38894z"/>
    <path d="m5.7369 6.947v-5.4822h0.46302l3.2967 5.0043h-0.13335v-5.0043h0.42228v5.4822h-0.46673l-3.293-5.0043h0.13335v5.0043z"/>
    <path d="m11.108 6.947v-5.4822h0.4408v5.4822z"/>
   </g>
   <g fill="#999">
    <path d="m13.882 7.0137q-0.30745 0-0.64823-0.055562-0.34078-0.051858-0.65564-0.15928v-0.39635q0.22966 0.074083 0.45561 0.12594 0.22596 0.048154 0.4408 0.074083 0.21855 0.022225 0.41857 0.022225 0.7149 0 1.0668-0.27781 0.3519-0.28152 0.3519-0.82603 0-0.45932-0.2704-0.70009-0.2667-0.24077-0.8927-0.40746l-0.2667-0.066675q-0.69268-0.1778-1.0372-0.5334-0.34078-0.3556-0.34078-0.93716 0-0.68527 0.47043-1.0816 0.47043-0.39635 1.3965-0.39635 0.30374 0 0.60748 0.040746 0.30745 0.040746 0.55933 0.12224v0.40005q-0.28522-0.0889-0.57785-0.12965-0.28892-0.04445-0.58526-0.04445-0.48154 0-0.7964 0.12594-0.31485 0.12224-0.46672 0.36301-0.15187 0.23707-0.15187 0.57415 0 0.4445 0.24448 0.68898 0.24448 0.24448 0.84085 0.40375l0.2667 0.066675q0.50006 0.12594 0.82233 0.32597 0.32226 0.19632 0.47784 0.48525 0.15558 0.28522 0.15558 0.67786 0 0.48525-0.22225 0.82603-0.21855 0.33708-0.64082 0.51488-0.42228 0.1741-1.0224 0.1741z"/>
    <path d="m17.731 7.0137q-0.30745 0-0.64823-0.055562-0.34078-0.051858-0.65564-0.15928v-0.39635q0.22966 0.074083 0.45561 0.12594 0.22595 0.048154 0.4408 0.074083 0.21855 0.022225 0.41857 0.022225 0.7149 0 1.0668-0.27781 0.3519-0.28152 0.3519-0.82603 0-0.45932-0.2704-0.70009-0.2667-0.24077-0.8927-0.40746l-0.2667-0.066675q-0.69268-0.1778-1.0372-0.5334-0.34078-0.3556-0.34078-0.93716 0-0.68527 0.47043-1.0816t1.3965-0.39635q0.30374 0 0.60748 0.040746 0.30745 0.040746 0.55933 0.12224v0.40005q-0.28522-0.0889-0.57785-0.12965-0.28892-0.04445-0.58526-0.04445-0.48154 0-0.7964 0.12594-0.31486 0.12224-0.46673 0.36301-0.15187 0.23707-0.15187 0.57415 0 0.4445 0.24448 0.68898 0.24448 0.24448 0.84085 0.40375l0.2667 0.066675q0.50006 0.12594 0.82233 0.32597 0.32226 0.19632 0.47784 0.48525 0.15558 0.28522 0.15558 0.67786 0 0.48525-0.22225 0.82603-0.21855 0.33708-0.64082 0.51488-0.42228 0.1741-1.0224 0.1741z"/>
    <path d="m20.572 6.947v-5.4822h0.4408v5.4822z"/>
    <path d="m21.794 6.947 2.0225-5.4822h0.60748l2.0225 5.4822h-0.45932l-1.9188-5.2562h0.09631l-1.9188 5.2562zm0.9816-1.8558 0.11112-0.38894h2.4707l0.10742 0.38894z"/>
   </g>
  </g>
 </g>
</svg>
