<?xml version="1.0" encoding="UTF-8" standalone="no"?>
<svg
   xmlns:dc="http://purl.org/dc/elements/1.1/"
   xmlns:cc="http://creativecommons.org/ns#"
   xmlns:rdf="http://www.w3.org/1999/02/22-rdf-syntax-ns#"
   xmlns:svg="http://www.w3.org/2000/svg"
   xmlns="http://www.w3.org/2000/svg"
   xmlns:sodipodi="http://sodipodi.sourceforge.net/DTD/sodipodi-0.dtd"
   xmlns:inkscape="http://www.inkscape.org/namespaces/inkscape"
   width="147"
   height="28"
   version="1.1"
   viewBox="0 0 38.894 7.4083"
   id="svg223"
   sodipodi:docname="logo-light.svg"
   inkscape:version="1.0.1 (3bc2e813f5, 2020-09-07)">
  <metadata
     id="metadata229">
    <rdf:RDF>
      <cc:Work
         rdf:about="">
        <dc:format>image/svg+xml</dc:format>
        <dc:type
           rdf:resource="http://purl.org/dc/dcmitype/StillImage" />
      </cc:Work>
    </rdf:RDF>
  </metadata>
  <defs
     id="defs227" />
  <sodipodi:namedview
     pagecolor="#ffffff"
     bordercolor="#666666"
     borderopacity="1"
     objecttolerance="10"
     gridtolerance="10"
     guidetolerance="10"
     inkscape:pageopacity="0"
     inkscape:pageshadow="2"
     inkscape:window-width="1965"
     inkscape:window-height="1331"
     id="namedview225"
     showgrid="false"
     inkscape:zoom="7.2312925"
     inkscape:cx="25.418134"
     inkscape:cy="14"
     inkscape:window-x="1807"
     inkscape:window-y="516"
     inkscape:window-maximized="0"
     inkscape:current-layer="layer4"
     inkscape:document-rotation="0"
     inkscape:snap-text-baseline="true"
     showguides="true" />
  <g
     display="none"
     id="g161">
    <rect
       width="38.894"
       height="7.4083"
       fill="#111"
       stroke-width=".045"
       id="rect159" />
  </g>
  <g
     display="none"
     id="g169">
    <g
       fill="#a04040"
       stroke-width=".26458"
       style="font-variant-caps:normal;font-variant-east-asian:normal;font-variant-ligatures:normal;font-variant-numeric:normal"
       aria-label="DH"
       id="g167">
      <path
         d="m0 1.1083e-7h1.465q1.4185 0 1.9162.13022.50229.13022.76274.42788t.32556.66508q.065112.36277.065112 1.4325v2.637q0 1.0139-.097668 1.3581-.093018.33951-.33021.53485-.23719.19069-.58601.26975-.34882.074414-1.0511.074414h-2.4696zm1.958 1.2883v4.9532q.42323 0 .5209-.16743.097668-.17208.097668-.92552v-2.9254q0-.5116-.032556-.65577-.032556-.14418-.14883-.20929-.11627-.069763-.43718-.069763z"
         id="path163" />
      <path
         d="m9.7668 1.1083e-7v7.5298h-1.958v-3.1626h-.58601v3.1626h-1.958v-7.5298h1.958v2.6929h.58601v-2.6929z"
         id="path165" />
    </g>
  </g>
  <g
     display="none"
     id="g179">
    <g
       fill="#4a5491"
       stroke-width=".26458"
       style="font-variant-caps:normal;font-variant-east-asian:normal;font-variant-ligatures:normal;font-variant-numeric:normal"
       aria-label="ANT"
       id="g177">
      <path
         d="m13.928 1.1083e-7 1.1209 7.5298h-2.0045l-.097668-1.3534h-.70228l-.11627 1.3534h-2.0278l.99529-7.5298zm-1.0371 4.8416q-.14883-1.279-.29766-3.1579-.29766 2.158-.37207 3.1579z"
         id="path171" />
      <path
         d="m19.755 1.1083e-7v7.5298h-1.7162l-1.0185-3.423v3.423h-1.6371v-7.5298h1.6371l1.0976 3.3905v-3.3905z"
         id="path173" />
      <path
         d="m24.481 1.1083e-7v1.5069h-1.1627v6.0229h-1.958v-6.0229h-1.1581v-1.5069z"
         id="path175" />
    </g>
  </g>
  <g
     display="none"
     id="g191">
    <g
       transform="scale(.99998 1)"
       fill="#585858"
       stroke-width=".265"
       style="font-variant-caps:normal;font-variant-east-asian:normal;font-variant-ligatures:normal;font-variant-numeric:normal"
       aria-label=".NET"
       id="g189">
      <path
         d="m25.419 5.9951v1.5348h-1.4185v-1.5348z"
         id="path181" />
      <path
         d="m30.363 2.7739e-6v7.5299h-1.7162l-1.0186-3.4231v3.4231h-1.6371v-7.5299h1.6371l1.0976 3.3905v-3.3905z"
         id="path183" />
      <path
         d="m31.144 2.7739e-6h3.265v1.5069h-1.3069v1.4278h1.2232v1.4325h-1.2232v1.6557h1.4371v1.5069h-3.3952z"
         id="path185" />
      <path
         d="m39.051 2.7739e-6v1.5069h-1.1627v6.023h-1.958v-6.023h-1.1581v-1.5069z"
         id="path187" />
    </g>
  </g>
  <g
     inkscape:groupmode="layer"
     id="layer4"
     inkscape:label="Layer 1">
    <text
       xml:space="preserve"
       style="font-style:normal;font-variant:normal;font-weight:normal;font-stretch:normal;font-size:12.3473px;line-height:1.25;font-family:Gabriola;-inkscape-font-specification:'Gabriola, Normal';font-variant-ligatures:normal;font-variant-caps:normal;font-variant-numeric:normal;font-variant-east-asian:normal;fill:#343434;fill-opacity:1;stroke:none;stroke-width:0.264585"
       x="0.32310238"
       y="7.1387749"
       id="text234"><tspan
         sodipodi:role="line"
         id="tspan232"
         x="0.32310238"
         y="7.1387749"
         style="font-style:normal;font-variant:normal;font-weight:normal;font-stretch:normal;font-size:12.3473px;font-family:Gabriola;-inkscape-font-specification:'Gabriola, Normal';font-variant-ligatures:normal;font-variant-caps:normal;font-variant-numeric:normal;font-variant-east-asian:normal;fill:#343434;fill-opacity:1;stroke-width:0.264585"><tspan
           style="fill:#2979ce;fill-opacity:1"
           id="tspan2471">Ani</tspan><tspan
           style="fill:#1b628e;fill-opacity:1"
           id="tspan2611">ssia</tspan></tspan></text>
  </g>
</svg>
