<?xml version="1.0" encoding="UTF-8"?>
<svg width="108" height="28" version="1.1" viewBox="0 0 28.575 7.4083" xmlns="http://www.w3.org/2000/svg" xmlns:cc="http://creativecommons.org/ns#" xmlns:dc="http://purl.org/dc/elements/1.1/" xmlns:rdf="http://www.w3.org/1999/02/22-rdf-syntax-ns#">
 <metadata>
  <rdf:RDF>
   <cc:Work rdf:about="">
    <dc:format>image/svg+xml</dc:format>
    <dc:type rdf:resource="http://purl.org/dc/dcmitype/StillImage"/>
    <dc:title/>
   </cc:Work>
  </rdf:RDF>
 </metadata>
 <g stroke-width=".26458">
  <g fill="#05a" style="font-variant-caps:normal;font-variant-east-asian:normal;font-variant-ligatures:normal;font-variant-numeric:normal" aria-label="Ani">
   <path d="m1.5783 5.5262q-0.10852 0.30748-0.18991 0.53658-0.078376 0.22609-0.13867 0.3949-0.06029 0.16881-0.10551 0.2924-0.045217 0.12058-0.084405 0.22006-0.048232 0.11455-0.10852 0.17785-0.06029 0.063304-0.12962 0.090434-0.069333 0.030145-0.15072 0.033159-0.081391 0.00603-0.17183 0.00603-0.051246 0-0.12661-0.00301-0.078376 0-0.14168-0.00301l-0.042203-0.030154q0.36174-0.78376 0.68429-1.4982 0.32556-0.71443 0.62701-1.3686-0.063304-0.099478-0.063304-0.1658 0-0.12058 0.19293-0.12359 0.55165-1.2118 0.98272-2.1342 0.43107-0.92544 0.75965-1.5464 0.030145-0.057275 0.078376-0.093449 0.048232-0.039188 0.10551-0.06029 0.057275-0.021101 0.12058-0.030145 0.063304-0.009043 0.12359-0.009043 0.08742 0 0.17183 0.015072 0.084405 0.015072 0.18087 0.057275 0.18991 1.046 0.34667 1.884 0.15977 0.83501 0.29542 1.4892 0.13565 0.65414 0.25623 1.1425 0.12058 0.48533 0.23211 0.83501 0.11154 0.34666 0.22307 0.57275 0.11154 0.22609 0.2291 0.35571 0.12058 0.12962 0.25322 0.18087 0.13264 0.051246 0.28939 0.051246 0.10249 0 0.208-0.024116t0.23211-0.069333l0.084405 0.24719q-0.34666 0.17183-0.66318 0.26226-0.31652 0.090434-0.56069 0.090434-0.13867 0-0.26226-0.051246-0.12058-0.051246-0.23513-0.17484-0.11154-0.12661-0.22006-0.33762-0.10551-0.21101-0.21403-0.53055-0.10852-0.31953-0.22307-0.75965-0.11455-0.44313-0.24116-1.0279-0.55768 0.006029-1.1033 0.02713-0.54261 0.018087-1.1244 0.051246-0.11756 0.31049-0.21403 0.56974-0.093449 0.25924-0.16278 0.4582zm2.5261-1.4771q-0.063304-0.29843-0.13565-0.66017-0.072347-0.36475-0.14771-0.76869-0.075362-0.40695-0.15374-0.84707t-0.15374-0.89229h-0.018087q-0.43408 0.89831-0.77472 1.7092-0.34064 0.81089-0.60591 1.4922 0.51849-0.012058 1.0038-0.018087 0.48533-0.0090434 0.98573-0.015072z"/>
   <path d="m7.3752 3.6994q0-0.12359-0.018087-0.208-0.018087-0.084405-0.057275-0.13264-0.036174-0.051246-0.093449-0.072347t-0.13565-0.021101q-0.10852 0-0.25925 0.030145t-0.34365 0.081391l-0.045217-0.21704q0.21403-0.075362 0.40997-0.13565 0.19896-0.063304 0.36475-0.10852 0.1658-0.045217 0.2924-0.069333 0.12661-0.024116 0.19896-0.024116 0.17484 0 0.2713 0.10551 0.099478 0.10249 0.099478 0.35571 0 0.030145-0.00603 0.14168-0.00603 0.10852-0.018087 0.27733-0.00904 0.16881-0.024116 0.38887-0.015072 0.21704-0.036174 0.46423-0.018087 0.24719-0.042203 0.51246-0.024116 0.26226-0.051246 0.52452l0.018087 0.00301q0.2291-0.77773 0.49136-1.3113 0.26226-0.53658 0.53356-0.86817 0.2713-0.33461 0.53959-0.48232 0.26829-0.14771 0.51246-0.14771 0.16881 0 0.32556 0.063304 0.15675 0.063304 0.27733 0.20197 0.12359 0.13867 0.19594 0.35872 0.07235 0.21704 0.07235 0.52753 0 0.090434-0.01206 0.24417-9e-3 0.15072-0.02412 0.33762-0.01507 0.1869-0.03617 0.39791-0.01809 0.208-0.03316 0.40997t-0.02713 0.38585q-9e-3 0.18087-9e-3 0.31652 0 0.23513 0.01809 0.38284 0.0211 0.14771 0.06632 0.23513 0.04522 0.084405 0.12058 0.11756 0.07536 0.030145 0.18388 0.030145 0.15675 0 0.32556-0.042203 0.16881-0.045217 0.34064-0.12359l0.05728 0.15675q-0.10852 0.08742-0.27432 0.17785-0.1658 0.090434-0.34968 0.1658-0.18087 0.075362-0.36174 0.12058-0.18087 0.048232-0.31954 0.048232-0.16278 0-0.25623-0.08742-0.09345-0.08742-0.14168-0.23814-0.04522-0.15072-0.06029-0.35269-0.01206-0.20197-0.01206-0.43408 0-0.28336 0.01809-0.58179 0.0211-0.30145 0.04522-0.57275 0.02412-0.2713 0.0422-0.49136 0.0211-0.22307 0.0211-0.35571 0-0.35269-0.13264-0.51849-0.13264-0.16881-0.35269-0.16881-0.17484 0-0.36777 0.14771-0.19298 0.14771-0.38591 0.40695-0.18991 0.25623-0.36777 0.60892-0.17484 0.34968-0.31652 0.75965-0.14168 0.40695-0.23513 0.8531-0.093449 0.44614-0.11756 0.89229l-0.63003 0.078376-0.048232-0.0030145q0.024116-0.28638 0.045217-0.624 0.021101-0.33762 0.039188-0.68429 0.018087-0.34968 0.030145-0.69032 0.015072-0.34365 0.024116-0.63907 0.012058-0.29843 0.015072-0.53356 0.006029-0.23513 0.006029-0.37078z"/>
   <path d="m13.03 1.5622q-0.10551 0-0.1869-0.042203-0.08139-0.045217-0.13867-0.11455-0.05728-0.072348-0.08742-0.16278-0.03015-0.093449-0.03015-0.18991 0-0.13565 0.04522-0.23814 0.04522-0.10551 0.11756-0.17484 0.07235-0.072348 0.15977-0.10551 0.08742-0.036174 0.17182-0.036174 0.10249 0 0.18388 0.039188 0.08139 0.036174 0.13867 0.10249 0.06029 0.066318 0.09043 0.15374 0.03316 0.084405 0.03316 0.18388 0 0.10551-0.03617 0.21101-0.03617 0.10249-0.10249 0.1869-0.0633 0.084405-0.15675 0.13565-0.09043 0.051246-0.20197 0.051246zm0.26226 1.3625q-0.05125 0.34365-0.08742 0.69032-0.03617 0.34365-0.06029 0.6662-0.0211 0.32255-0.03316 0.61194-9e-3 0.28638-9e-3 0.51849 0 0.31351 9e-3 0.53959 9e-3 0.22307 0.03014 0.37681 0.0211 0.15374 0.05125 0.24719 0.03316 0.090434 0.07838 0.14168 0.04823 0.048232 0.10852 0.063304 0.0633 0.015072 0.14168 0.015072 0.1447 0 0.31049-0.042203 0.16881-0.045217 0.34064-0.12359l0.05727 0.15675q-0.10852 0.08742-0.27432 0.17785-0.16278 0.090434-0.34365 0.1658-0.18087 0.075362-0.35571 0.12058-0.17182 0.048232-0.29843 0.048232-0.08441 0-0.15374-0.015072-0.06933-0.012058-0.12661-0.066319-0.05426-0.054261-0.09948-0.15977-0.0422-0.10551-0.07235-0.28638-0.02713-0.18087-0.0422-0.45217t-0.01507-0.65716q0-0.22609 3e-3 -0.50945 6e-3 -0.28638 0.01507-0.61194 9e-3 -0.32858 0.02412-0.69032 0.01507-0.36475 0.03919-0.7506 6e-3 -0.084405 0.04522-0.13565 0.03919-0.054261 0.09646-0.081391 0.05727-0.030145 0.12058-0.039188 0.06632-0.012058 0.12058-0.012058 0.20197 0 0.37982 0.093449z"/>
  </g>
  <g fill="#06b" style="font-variant-caps:normal;font-variant-east-asian:normal;font-variant-ligatures:normal;font-variant-numeric:normal" aria-label="ssia">
   <path d="m14.939 6.0778q0.0211 0.2291 0.12058 0.3949 0.10249 0.1658 0.2502 0.2713 0.14771 0.10551 0.32556 0.15675 0.18087 0.051246 0.35872 0.051246 0.1658 0 0.31953-0.045217 0.15374-0.045217 0.2713-0.12962 0.11756-0.084405 0.1869-0.208 0.07235-0.12359 0.07235-0.27733 0-0.15977-0.07536-0.28035-0.075366-0.12058-0.20197-0.22006-0.12661-0.099478-0.29542-0.18388-0.1658-0.084405-0.34666-0.17183-0.15977-0.075362-0.32255-0.15072-0.15977-0.078376-0.31049-0.16881-0.15072-0.090434-0.28336-0.19594-0.12962-0.10551-0.2291-0.23211-0.096463-0.12962-0.15374-0.28638-0.05426-0.15977-0.05426-0.35269 0-0.208 0.07235-0.38284t0.19594-0.31351q0.12661-0.14168 0.28939-0.24719 0.1658-0.10551 0.35269-0.17484 0.1869-0.072347 0.38284-0.10551 0.19896-0.036174 0.38585-0.036174 0.24116 0 0.45519 0.054261 0.21704 0.051246 0.37681 0.15374 0.16278 0.099478 0.25623 0.24417 0.09646 0.14469 0.09646 0.32556 0 0.069333-0.02412 0.15072-0.02412 0.081391-0.08139 0.15374-0.05728 0.069333-0.15072 0.11756-0.09345 0.048232-0.2291 0.051246-0.12661 0-0.26527-0.039188l-9e-3 -0.030145q0.0422-0.096463 0.06029-0.17785 0.01809-0.081391 0.01809-0.15072-3e-3 -0.13867-0.07235-0.23211-0.06632-0.096463-0.16881-0.15675-0.10249-0.06029-0.2291-0.08742-0.12359-0.02713-0.24417-0.02713-0.21403 0-0.38284 0.057275-0.16881 0.057275-0.28638 0.15374-0.11455 0.093449-0.17785 0.21403-0.06029 0.12058-0.06029 0.2502 0 0.1658 0.08742 0.29843 0.08742 0.12962 0.23212 0.24116 0.1447 0.10852 0.33159 0.20498 0.18991 0.096463 0.3949 0.19293 0.2291 0.10852 0.45519 0.22609 0.22609 0.11455 0.40394 0.26226t0.28638 0.34064q0.11154 0.18991 0.11154 0.44916 0 0.31049-0.13867 0.55165-0.13565 0.24116-0.36475 0.40695-0.2291 0.1658-0.52753 0.2502-0.29542 0.08742-0.61495 0.08742-0.15977 0-0.33159-0.024116-0.16885-0.024116-0.32862-0.072348-0.15977-0.048232-0.30446-0.11756-0.14168-0.072347-0.2502-0.16278-0.10551-0.093449-0.16881-0.20498-0.060289-0.11455-0.060289-0.2502 0-0.11756 0.04823-0.19896 0.05125-0.081391 0.13264-0.13264 0.08139-0.051246 0.18087-0.075362 0.10249-0.02713 0.208-0.030145z"/>
   <path d="m18.514 6.0778q0.0211 0.2291 0.12058 0.3949 0.10249 0.1658 0.2502 0.2713 0.14771 0.10551 0.32556 0.15675 0.18087 0.051246 0.35872 0.051246 0.1658 0 0.31954-0.045217 0.15374-0.045217 0.2713-0.12962 0.11756-0.084405 0.1869-0.208 0.07235-0.12359 0.07235-0.27733 0-0.15977-0.07536-0.28035-0.075366-0.12058-0.20197-0.22006t-0.29542-0.18388q-0.1658-0.084405-0.34666-0.17183-0.15977-0.075362-0.32255-0.15072-0.15977-0.078376-0.31049-0.16881-0.15072-0.090434-0.28336-0.19594-0.12962-0.10551-0.2291-0.23211-0.096464-0.12962-0.15374-0.28638-0.05426-0.15977-0.05426-0.35269 0-0.208 0.07235-0.38284t0.19594-0.31351q0.12661-0.14168 0.28939-0.24719 0.1658-0.10551 0.35269-0.17484 0.1869-0.072347 0.38284-0.10551 0.19896-0.036174 0.38585-0.036174 0.24116 0 0.45519 0.054261 0.21704 0.051246 0.37681 0.15374 0.16278 0.099478 0.25623 0.24417 0.09646 0.14469 0.09646 0.32556 0 0.069333-0.02412 0.15072-0.02412 0.081391-0.08139 0.15374-0.05727 0.069333-0.15072 0.11756-0.09345 0.048232-0.2291 0.051246-0.12661 0-0.26527-0.039188l-9e-3 -0.030145q0.0422-0.096463 0.06029-0.17785 0.01809-0.081391 0.01809-0.15072-3e-3 -0.13867-0.07235-0.23211-0.06632-0.096463-0.16881-0.15675-0.10249-0.06029-0.2291-0.08742-0.12359-0.02713-0.24417-0.02713-0.21403 0-0.38284 0.057275-0.16881 0.057275-0.28638 0.15374-0.11455 0.093449-0.17785 0.21403-0.06029 0.12058-0.06029 0.2502 0 0.1658 0.08742 0.29843 0.08742 0.12962 0.23212 0.24116 0.1447 0.10852 0.33159 0.20498 0.18991 0.096463 0.3949 0.19293 0.2291 0.10852 0.45519 0.22609 0.22609 0.11455 0.40394 0.26226t0.28638 0.34064q0.11154 0.18991 0.11154 0.44916 0 0.31049-0.13867 0.55165-0.13565 0.24116-0.36475 0.40695-0.2291 0.1658-0.52753 0.2502-0.29542 0.08742-0.61495 0.08742-0.15977 0-0.33159-0.024116-0.16885-0.024116-0.32862-0.072348-0.15977-0.048232-0.30446-0.11756-0.14168-0.072347-0.2502-0.16278-0.10551-0.093449-0.16881-0.20498-0.060289-0.11455-0.060289-0.2502 0-0.11756 0.04823-0.19896 0.05125-0.081391 0.13264-0.13264 0.08139-0.051246 0.18087-0.075362 0.10249-0.02713 0.208-0.030145z"/>
   <path d="m22.572 1.5621q-0.10551 0-0.1869-0.042203-0.08139-0.045217-0.13867-0.11455-0.05728-0.072347-0.08742-0.16278-0.03015-0.093449-0.03015-0.18991 0-0.13565 0.04522-0.23814 0.04522-0.10551 0.11756-0.17484 0.07235-0.072348 0.15977-0.10551 0.08742-0.036174 0.17182-0.036174 0.10249 0 0.18388 0.039188 0.08139 0.036174 0.13867 0.10249 0.06029 0.066318 0.09043 0.15374 0.03316 0.084405 0.03316 0.18388 0 0.10551-0.03617 0.21101-0.03617 0.10249-0.10249 0.1869-0.0633 0.084405-0.15675 0.13565-0.09043 0.051246-0.20197 0.051246zm0.26226 1.3625q-0.05125 0.34365-0.08742 0.69032-0.03617 0.34365-0.06029 0.6662-0.0211 0.32255-0.03316 0.61194-9e-3 0.28638-9e-3 0.51849 0 0.31351 9e-3 0.53959 9e-3 0.22307 0.03014 0.37681 0.0211 0.15374 0.05125 0.24719 0.03316 0.090434 0.07838 0.14168 0.04823 0.048232 0.10852 0.063304 0.0633 0.015072 0.14168 0.015072 0.1447 0 0.31049-0.042203 0.16881-0.045217 0.34064-0.12359l0.05727 0.15675q-0.10852 0.08742-0.27432 0.17785-0.16278 0.090434-0.34365 0.1658-0.18087 0.075362-0.35571 0.12058-0.17182 0.048232-0.29843 0.048232-0.08441 0-0.15374-0.015072-0.06933-0.012058-0.12661-0.066319-0.05426-0.054261-0.09948-0.15977-0.0422-0.10551-0.07235-0.28638-0.02713-0.18087-0.0422-0.45217-0.01507-0.2713-0.01507-0.65716 0-0.22609 3e-3 -0.50945 6e-3 -0.28638 0.01507-0.61194 9e-3 -0.32858 0.02412-0.69032 0.01507-0.36475 0.03919-0.7506 6e-3 -0.084405 0.04522-0.13565 0.03919-0.054261 0.09646-0.081391 0.05727-0.030145 0.12058-0.039188 0.06632-0.012058 0.12058-0.012058 0.20197 0 0.37982 0.093449z"/>
   <path d="m26.539 4.0671q0-0.23814-0.07838-0.41298-0.078373-0.17484-0.20498-0.28638-0.12661-0.11154-0.28638-0.1658t-0.31954-0.054261q-0.21403 0-0.36174 0.045217-0.14771 0.045217-0.24116 0.12359-0.09043 0.078376-0.13264 0.1869-0.03919 0.10551-0.03919 0.2291 0 0.14469 0.05125 0.2924 0.05426 0.14469 0.15675 0.28336l-0.01206 0.033159q-0.17182 0.084405-0.34666 0.084405-0.10249 0-0.19293-0.030145-0.08742-0.033159-0.15374-0.093449-0.0633-0.060289-0.10249-0.14771-0.03617-0.08742-0.03617-0.19594 0-0.17785 0.08441-0.33461 0.08742-0.15675 0.2291-0.28638 0.14168-0.12962 0.32858-0.23211 0.1869-0.10249 0.38585-0.17183 0.19896-0.072347 0.39791-0.10852 0.20197-0.039188 0.3738-0.039188 0.31652 0 0.53959 0.084405 0.22609 0.084405 0.36475 0.24719 0.14168 0.15977 0.20498 0.38887 0.06632 0.2291 0.06632 0.51849 0 0.19896-0.01809 0.4371-0.01507 0.23814-0.03617 0.5004-0.0211 0.25925-0.03919 0.53658-0.01507 0.27733-0.01507 0.55165 0 0.43408 0.15977 0.65414 0.16278 0.21704 0.42504 0.21704 0.23211 0 0.51849-0.17183l0.08742 0.12962q-0.20197 0.20197-0.44011 0.30748-0.23814 0.10551-0.5004 0.10551-0.19594 0-0.36174-0.066319-0.1658-0.066318-0.28638-0.19594-0.12058-0.13264-0.1869-0.33159-0.06632-0.19896-0.06632-0.46122 0-0.078377 3e-3 -0.15675 6e-3 -0.078376 0.0211-0.1658h-0.01809q-0.12962 0.25924-0.30145 0.51246-0.16881 0.2502-0.3738 0.44916-0.20197 0.19594-0.43408 0.31652-0.2291 0.12359-0.48232 0.12359-0.208 0-0.37982-0.072348-0.17183-0.072347-0.29542-0.19896-0.12058-0.12661-0.18991-0.29843-0.06632-0.17484-0.06632-0.37982 0-0.26527 0.09646-0.48232 0.09948-0.21704 0.2713-0.38887 0.17484-0.17183 0.416-0.29542 0.24116-0.12661 0.52452-0.208 0.28336-0.084405 0.59988-0.12359 0.31652-0.042203 0.6451-0.042203 0.0211-0.18991 0.03316-0.36777 0.01507-0.17785 0.01507-0.39188zm-1.8509 2.0709q0 0.11756 0.02412 0.22609 0.02713 0.10551 0.08139 0.1869 0.05728 0.081391 0.14168 0.12962 0.08742 0.045217 0.208 0.045217 0.13565 0 0.28035-0.063304t0.28336-0.17484q0.14168-0.11154 0.26829-0.26527 0.12962-0.15675 0.23212-0.34064t0.16881-0.38585q0.06933-0.20498 0.09043-0.41901-0.22307 0.00603-0.44313 0.030145-0.22006 0.021101-0.41901 0.069333-0.19594 0.048232-0.36475 0.12661-0.16881 0.078376-0.2924 0.19594-0.12058 0.11455-0.18991 0.27432-0.06933 0.15675-0.06933 0.36475z"/>
  </g>
 </g>
</svg>
