<?xml version="1.0" encoding="UTF-8" standalone="no"?>
<!-- Created with Inkscape (http://www.inkscape.org/) -->

<svg
   xmlns:osb="http://www.openswatchbook.org/uri/2009/osb"
   xmlns:dc="http://purl.org/dc/elements/1.1/"
   xmlns:cc="http://creativecommons.org/ns#"
   xmlns:rdf="http://www.w3.org/1999/02/22-rdf-syntax-ns#"
   xmlns:svg="http://www.w3.org/2000/svg"
   xmlns="http://www.w3.org/2000/svg"
   xmlns:sodipodi="http://sodipodi.sourceforge.net/DTD/sodipodi-0.dtd"
   xmlns:inkscape="http://www.inkscape.org/namespaces/inkscape"
   width="256"
   height="64"
   viewBox="0 0 67.73333 16.933334"
   version="1.1"
   id="svg8"
   inkscape:version="0.92.4 (5da689c313, 2019-01-14)"
   sodipodi:docname="ci2.svg">
  <metadata
     id="metadata5">
    <rdf:RDF>
      <cc:Work
         rdf:about="">
        <dc:format>image/svg+xml</dc:format>
        <dc:type
           rdf:resource="http://purl.org/dc/dcmitype/StillImage" />
        <dc:title></dc:title>
      </cc:Work>
    </rdf:RDF>
  </metadata>
  <g>
    <g>
      <path style="fill:#333;fill-opacity:1" d="m 65.889433,13.524042 v 1.091406 h -1.085894 v -1.091406 z m -1.085894,0 V 12.44366 h 1.085894 v 1.080382 z m 0,-1.080382 v -1.107943 h 1.085894 v 1.107943 z m 0,-1.107943 v -1.102431 h 1.085894 v 1.102431 z m 0,-1.102431 V 9.1253436 h 1.085894 v 1.1079424 z m 0,-1.1079424 V 8.0229131 h 1.085894 v 1.1024305 z m 0,-1.1024305 V 6.9149704 h 1.085894 v 1.1079427 z m 0,-1.1079427 V 5.8070276 h 1.085894 v 1.1079428 z m 0,6.6090716 v 1.091406 h -1.10243 v -1.091406 z m -1.10243,0 V 12.44366 h 1.10243 v 1.080382 z m 0,-1.080382 v -1.107943 h 1.10243 v 1.107943 z m 0,-1.107943 v -1.102431 h 1.10243 v 1.102431 z m 0,-1.102431 V 9.1253436 h 1.10243 v 1.1079424 z m 0,-1.1079424 V 8.0229131 h 1.10243 v 1.1024305 z m 0,-1.1024305 V 6.9149704 h 1.10243 v 1.1079427 z m 0,-1.1079427 V 5.8070276 h 1.10243 v 1.1079428 z m 0,-1.1079428 V 4.7266457 h 1.10243 V 5.8070276 Z M 62.593166,4.7266457 V 3.618703 h 1.107943 v 1.1079427 z m 1.107943,8.7973963 v 1.091406 h -1.107943 v -1.091406 z m -1.107943,0 V 12.44366 h 1.107943 v 1.080382 z m 0,-7.7170144 V 4.7266457 h 1.107943 V 5.8070276 Z M 61.490735,4.7266457 V 3.618703 h 1.102431 v 1.1079427 z m 1.102431,8.7973963 v 1.091406 h -1.102431 v -1.091406 z m -1.102431,0 V 12.44366 h 1.102431 v 1.080382 z M 60.382793,4.7266457 V 3.618703 h 1.107942 v 1.1079427 z m 0,8.7973963 V 12.44366 h 1.107942 v 1.080382 z m 0,-1.080382 v -1.107943 h 1.107942 v 1.107943 z m 0,-1.107943 v -1.102431 h 1.107942 v 1.102431 z m 0,-2.2103734 V 8.0229131 h 1.107942 v 1.1024305 z m 0,-1.1024305 V 6.9149704 h 1.107942 v 1.1079427 z m 0,-1.1079427 V 5.8070276 h 1.107942 V 6.9149704 Z M 59.27485,4.7266457 V 3.618703 h 1.107943 v 1.1079427 z m 1.107943,8.7973963 v 1.091406 H 59.27485 v -1.091406 z m -1.107943,0 V 12.44366 h 1.107943 v 1.080382 z m 0,-1.080382 v -1.107943 h 1.107943 v 1.107943 z m 0,-1.107943 v -1.102431 h 1.107943 v 1.102431 z m 0,-2.2103734 V 8.0229131 h 1.107943 v 1.1024305 z m 0,-1.1024305 V 6.9149704 h 1.107943 v 1.1079427 z m 0,-1.1079427 V 5.8070276 h 1.107943 V 6.9149704 Z M 58.194468,4.7266457 V 3.618703 h 1.080382 v 1.1079427 z m 1.080382,8.7973963 v 1.091406 h -1.080382 v -1.091406 z m -1.080382,0 V 12.44366 h 1.080382 v 1.080382 z m 0,-1.080382 v -1.107943 h 1.080382 v 1.107943 z m 0,-1.107943 v -1.102431 h 1.080382 v 1.102431 z m 0,-2.2103734 V 8.0229131 h 1.080382 v 1.1024305 z m 0,-1.1024305 V 6.9149704 h 1.080382 v 1.1079427 z m 0,-1.1079427 V 5.8070276 H 59.27485 V 6.9149704 Z M 57.086525,4.7266457 V 3.618703 h 1.107943 v 1.1079427 z m 1.107943,8.7973963 v 1.091406 h -1.107943 v -1.091406 z m -1.107943,0 V 12.44366 h 1.107943 v 1.080382 z M 55.984095,4.7266457 V 3.618703 h 1.10243 v 1.1079427 z m 1.10243,8.7973963 v 1.091406 h -1.10243 v -1.091406 z m -1.10243,0 V 12.44366 h 1.10243 v 1.080382 z m 0,-7.7170144 V 4.7266457 h 1.10243 V 5.8070276 Z M 54.876152,13.524042 V 12.44366 h 1.107943 v 1.080382 z m 0,-1.080382 v -1.107943 h 1.107943 v 1.107943 z m 0,-1.107943 v -1.102431 h 1.107943 v 1.102431 z m 0,-1.102431 V 9.1253436 h 1.107943 v 1.1079424 z m 0,-1.1079424 V 8.0229131 h 1.107943 v 1.1024305 z m 0,-1.1024305 V 6.9149704 h 1.107943 v 1.1079427 z m 0,-1.1079427 V 5.8070276 h 1.107943 v 1.1079428 z m 0,-1.1079428 V 4.7266457 h 1.107943 v 1.0803819 z"/>
    </g>
  </g>
  <g>
    <g>
      <path style="fill:#444;fill-opacity:1" d="m 54.914569,13.518669 v 1.091406 h -1.107943 v -1.091406 z m -1.107943,0 v -1.080382 h 1.107943 v 1.080382 z m 0,-1.080382 v -1.107943 h 1.107943 v 1.107943 z m 0,-1.107943 v -1.102431 h 1.107943 v 1.102431 z m 0,-1.102431 V 9.1199706 h 1.107943 v 1.1079424 z m 0,-1.1079424 V 8.0175401 h 1.107943 v 1.1024305 z m 0,-1.1024305 V 6.9095974 h 1.107943 v 1.1079427 z m 0,-1.1079427 V 5.8016546 h 1.107943 v 1.1079428 z m 0,-1.1079428 V 4.7212727 h 1.107943 V 5.8016546 Z M 52.726244,4.7212727 V 3.61333 h 1.080382 v 1.1079427 z m 1.080382,8.7973963 v 1.091406 h -1.080382 v -1.091406 z m -1.080382,0 v -1.080382 h 1.080382 v 1.080382 z m 0,-1.080382 v -1.107943 h 1.080382 v 1.107943 z m 0,-1.107943 v -1.102431 h 1.080382 v 1.102431 z m 0,-1.102431 V 9.1199706 h 1.080382 v 1.1079424 z m 0,-1.1079424 V 8.0175401 h 1.080382 v 1.1024305 z m 0,-1.1024305 V 6.9095974 h 1.080382 v 1.1079427 z m 0,-1.1079427 V 5.8016546 h 1.080382 v 1.1079428 z m 0,-1.1079428 V 4.7212727 h 1.080382 V 5.8016546 Z M 51.618302,4.7212727 V 3.61333 h 1.107942 v 1.1079427 z m 1.107942,8.7973963 v 1.091406 h -1.107942 v -1.091406 z m -1.107942,0 v -1.080382 h 1.107942 v 1.080382 z M 50.515871,4.7212727 V 3.61333 h 1.102431 v 1.1079427 z m 1.102431,8.7973963 v 1.091406 h -1.102431 v -1.091406 z m -1.102431,0 v -1.080382 h 1.102431 v 1.080382 z M 49.407928,4.7212727 V 3.61333 h 1.107943 v 1.1079427 z m 0,8.7973963 v -1.080382 h 1.107943 v 1.080382 z m 0,-1.080382 v -1.107943 h 1.107943 v 1.107943 z m 0,-1.107943 v -1.102431 h 1.107943 v 1.102431 z m 0,-1.102431 V 9.1199706 h 1.107943 v 1.1079424 z m 0,-1.1079424 V 8.0175401 h 1.107943 v 1.1024305 z m 0,-1.1024305 V 6.9095974 h 1.107943 v 1.1079427 z m 0,-1.1079427 V 5.8016546 h 1.107943 v 1.1079428 z m 0,-1.1079428 V 4.7212727 h 1.107943 v 1.0803819 z"/>
    </g>
  </g>
  <g>
    <g>
      <path style="fill:#555;fill-opacity:1" d="m 48.377247,13.518669 v -1.080382 h 1.085894 v 1.080382 z m 0,-1.080382 v -1.107943 h 1.085894 v 1.107943 z m 0,-1.107943 v -1.102431 h 1.085894 v 1.102431 z m 0,-1.102431 V 9.1199706 h 1.085894 v 1.1079424 z m 0,-1.1079424 V 8.0175401 h 1.085894 v 1.1024305 z m 0,-1.1024305 V 6.9095974 h 1.085894 v 1.1079427 z m 0,-1.1079427 V 5.8016546 h 1.085894 v 1.1079428 z m 0,6.6090716 v 1.091406 h -1.102431 v -1.091406 z m -1.102431,0 v -1.080382 h 1.102431 v 1.080382 z m 0,-1.080382 v -1.107943 h 1.102431 v 1.107943 z m 0,-1.107943 v -1.102431 h 1.102431 v 1.102431 z m 0,-1.102431 V 9.1199706 h 1.102431 v 1.1079424 z m 0,-1.1079424 V 8.0175401 h 1.102431 v 1.1024305 z m 0,-1.1024305 V 6.9095974 h 1.102431 v 1.1079427 z m 0,-1.1079427 V 5.8016546 h 1.102431 v 1.1079428 z m 0,-1.1079428 V 4.7212727 h 1.102431 V 5.8016546 Z M 46.166874,4.7212727 V 3.61333 h 1.107942 v 1.1079427 z m 1.107942,8.7973963 v 1.091406 h -1.107942 v -1.091406 z m -1.107942,0 v -1.080382 h 1.107942 v 1.080382 z m 0,-1.080382 v -1.107943 h 1.107942 v 1.107943 z m 0,-3.3183164 V 8.0175401 h 1.107942 v 1.1024305 z m 0,-1.1024305 V 6.9095974 h 1.107942 v 1.1079427 z m 0,-2.2158855 V 4.7212727 h 1.107942 V 5.8016546 Z M 45.064443,4.7212727 V 3.61333 h 1.102431 v 1.1079427 z m 1.102431,8.7973963 v 1.091406 h -1.102431 v -1.091406 z m -1.102431,0 v -1.080382 h 1.102431 v 1.080382 z m 0,-5.5011289 V 6.9095974 h 1.102431 V 8.0175401 Z M 43.9565,4.7212727 V 3.61333 h 1.107943 v 1.1079427 z m 1.107943,8.7973963 v 1.091406 H 43.9565 v -1.091406 z m -1.107943,0 v -1.080382 h 1.107943 v 1.080382 z m 0,-2.188325 v -1.102431 h 1.107943 v 1.102431 z m 0,-1.102431 V 9.1199706 h 1.107943 v 1.1079424 z m 0,-2.2103729 V 6.9095974 h 1.107943 v 1.1079427 z m 0,-1.1079427 V 5.8016546 h 1.107943 V 6.9095974 Z M 42.848558,4.7212727 V 3.61333 H 43.9565 V 4.7212727 Z M 43.9565,13.518669 v 1.091406 h -1.107942 v -1.091406 z m -1.107942,0 V 12.438287 H 43.9565 v 1.080382 z m 0,-2.188325 V 10.227913 H 43.9565 v 1.102431 z m 0,-1.102431 V 9.1199706 H 43.9565 v 1.1079424 z m 0,-2.2103729 V 6.9095974 H 43.9565 v 1.1079427 z m 0,-1.1079427 V 5.8016546 H 43.9565 V 6.9095974 Z M 41.768176,4.7212727 V 3.61333 h 1.080382 v 1.1079427 z m 1.080382,8.7973963 v 1.091406 h -1.080382 v -1.091406 z m -1.080382,0 v -1.080382 h 1.080382 v 1.080382 z m 0,-2.188325 v -1.102431 h 1.080382 v 1.102431 z m 0,-1.102431 V 9.1199706 h 1.080382 v 1.1079424 z m 0,-2.2103729 V 6.9095974 h 1.080382 v 1.1079427 z m 0,-1.1079427 V 5.8016546 h 1.080382 V 6.9095974 Z M 40.660233,4.7212727 V 3.61333 h 1.107943 v 1.1079427 z m 1.107943,8.7973963 v 1.091406 h -1.107943 v -1.091406 z m -1.107943,0 v -1.080382 h 1.107943 v 1.080382 z m 0,-3.290756 V 9.1199706 h 1.107943 V 10.227913 Z M 39.557802,4.7212727 V 3.61333 h 1.102431 v 1.1079427 z m 0,8.7973963 v -1.080382 h 1.102431 v 1.080382 z m 0,-1.080382 v -1.107943 h 1.102431 v 1.107943 z m 0,-2.210374 V 9.1199706 h 1.102431 v 1.1079424 z m 0,-1.1079424 V 8.0175401 h 1.102431 v 1.1024305 z m 0,-3.318316 V 4.7212727 h 1.102431 V 5.8016546 Z M 38.44986,12.438287 v -1.107943 h 1.107942 v 1.107943 z m 0,-1.107943 v -1.102431 h 1.107942 v 1.102431 z m 0,-1.102431 V 9.1199706 h 1.107942 v 1.1079424 z m 0,-1.1079424 V 8.0175401 h 1.107942 v 1.1024305 z m 0,-1.1024305 V 6.9095974 h 1.107942 v 1.1079427 z m 0,-1.1079427 V 5.8016546 h 1.107942 v 1.1079428 z m 0,-1.1079428 V 4.7212727 h 1.107942 v 1.0803819 z"/>
    </g>
  </g>
  <g>
    <g>
      <path style="fill:#666;fill-opacity:1" d="m 37.424559,13.518669 v -1.080382 h 1.085894 v 1.080382 z m 0,-1.080382 v -1.107943 h 1.085894 v 1.107943 z m 0,-1.107943 v -1.102431 h 1.085894 v 1.102431 z m 0,-1.102431 V 9.1199706 h 1.085894 v 1.1079424 z m 0,-1.1079424 V 8.0175401 h 1.085894 v 1.1024305 z m 0,-1.1024305 V 6.9095974 h 1.085894 v 1.1079427 z m 0,-1.1079427 V 5.8016546 h 1.085894 v 1.1079428 z m 0,6.6090716 v 1.091406 h -1.102431 v -1.091406 z m -1.102431,0 v -1.080382 h 1.102431 v 1.080382 z m 0,-1.080382 v -1.107943 h 1.102431 v 1.107943 z m 0,-1.107943 v -1.102431 h 1.102431 v 1.102431 z m 0,-1.102431 V 9.1199706 h 1.102431 v 1.1079424 z m 0,-1.1079424 V 8.0175401 h 1.102431 v 1.1024305 z m 0,-1.1024305 V 6.9095974 h 1.102431 v 1.1079427 z m 0,-1.1079427 V 5.8016546 h 1.102431 v 1.1079428 z m 0,-1.1079428 V 4.7212727 h 1.102431 V 5.8016546 Z M 35.214185,4.7212727 V 3.61333 h 1.107943 v 1.1079427 z m 1.107943,8.7973963 v 1.091406 h -1.107943 v -1.091406 z m -1.107943,0 v -1.080382 h 1.107943 v 1.080382 z m 0,-1.080382 v -1.107943 h 1.107943 v 1.107943 z m 0,-3.3183164 V 8.0175401 h 1.107943 v 1.1024305 z m 0,-1.1024305 V 6.9095974 h 1.107943 v 1.1079427 z m 0,-2.2158855 V 4.7212727 h 1.107943 V 5.8016546 Z M 34.111755,4.7212727 V 3.61333 h 1.10243 v 1.1079427 z m 1.10243,8.7973963 v 1.091406 h -1.10243 v -1.091406 z m -1.10243,0 v -1.080382 h 1.10243 v 1.080382 z m 0,-5.5011289 V 6.9095974 h 1.10243 V 8.0175401 Z M 33.003812,4.7212727 V 3.61333 h 1.107943 v 1.1079427 z m 1.107943,8.7973963 v 1.091406 h -1.107943 v -1.091406 z m -1.107943,0 v -1.080382 h 1.107943 v 1.080382 z m 0,-2.188325 v -1.102431 h 1.107943 v 1.102431 z m 0,-1.102431 V 9.1199706 h 1.107943 v 1.1079424 z m 0,-2.2103729 V 6.9095974 h 1.107943 v 1.1079427 z m 0,-1.1079427 V 5.8016546 h 1.107943 V 6.9095974 Z M 31.895869,4.7212727 V 3.61333 h 1.107943 v 1.1079427 z m 1.107943,8.7973963 v 1.091406 h -1.107943 v -1.091406 z m -1.107943,0 v -1.080382 h 1.107943 v 1.080382 z m 0,-2.188325 v -1.102431 h 1.107943 v 1.102431 z m 0,-1.102431 V 9.1199706 h 1.107943 v 1.1079424 z m 0,-2.2103729 V 6.9095974 h 1.107943 v 1.1079427 z m 0,-1.1079427 V 5.8016546 h 1.107943 V 6.9095974 Z M 30.815487,4.7212727 V 3.61333 h 1.080382 v 1.1079427 z m 1.080382,8.7973963 v 1.091406 h -1.080382 v -1.091406 z m -1.080382,0 v -1.080382 h 1.080382 v 1.080382 z m 0,-2.188325 v -1.102431 h 1.080382 v 1.102431 z m 0,-1.102431 V 9.1199706 h 1.080382 v 1.1079424 z m 0,-2.2103729 V 6.9095974 h 1.080382 v 1.1079427 z m 0,-1.1079427 V 5.8016546 h 1.080382 V 6.9095974 Z M 29.707545,4.7212727 V 3.61333 h 1.107942 v 1.1079427 z m 1.107942,8.7973963 v 1.091406 h -1.107942 v -1.091406 z m -1.107942,0 v -1.080382 h 1.107942 v 1.080382 z m 0,-3.290756 V 9.1199706 h 1.107942 V 10.227913 Z M 28.605114,4.7212727 V 3.61333 h 1.102431 v 1.1079427 z m 0,8.7973963 v -1.080382 h 1.102431 v 1.080382 z m 0,-1.080382 v -1.107943 h 1.102431 v 1.107943 z m 0,-2.210374 V 9.1199706 h 1.102431 v 1.1079424 z m 0,-1.1079424 V 8.0175401 h 1.102431 v 1.1024305 z m 0,-3.318316 V 4.7212727 h 1.102431 v 1.0803819 z m -1.107943,6.6366324 v -1.107943 h 1.107943 v 1.107943 z m 0,-1.107943 v -1.102431 h 1.107943 v 1.102431 z m 0,-1.102431 V 9.1199706 h 1.107943 v 1.1079424 z m 0,-1.1079424 V 8.0175401 h 1.107943 v 1.1024305 z m 0,-1.1024305 V 6.9095974 h 1.107943 v 1.1079427 z m 0,-1.1079427 V 5.8016546 h 1.107943 v 1.1079428 z m 0,-1.1079428 V 4.7212727 h 1.107943 v 1.0803819 z"/>
    </g>
  </g>
  <g>
    <g>
      <path style="fill:#777;fill-opacity:1" d="m 27.554008,13.51867 v 1.091407 H 26.446065 V 13.51867 Z m -1.107943,0 v -1.080381 h 1.107943 v 1.080381 z m 0,-1.080381 v -1.107943 h 1.107943 v 1.107943 z m 0,-1.107943 v -1.102431 h 1.107943 v 1.102431 z m 0,-1.102431 V 9.1199725 h 1.107943 v 1.1079425 z m 0,-1.1079425 V 8.017542 h 1.107943 v 1.1024305 z m 0,-1.1024305 V 6.9095993 h 1.107943 V 8.017542 Z m 0,-1.1079427 V 5.8016565 h 1.107943 v 1.1079428 z m 0,-1.1079428 V 4.7212746 h 1.107943 V 5.8016565 Z M 25.365683,4.7212746 V 3.6133319 h 1.080382 v 1.1079427 z m 1.080382,8.7973954 v 1.091407 H 25.365683 V 13.51867 Z m -1.080382,0 v -1.080381 h 1.080382 v 1.080381 z m 0,-1.080381 v -1.107943 h 1.080382 v 1.107943 z m 0,-1.107943 v -1.102431 h 1.080382 v 1.102431 z m 0,-1.102431 V 9.1199725 h 1.080382 v 1.1079425 z m 0,-1.1079425 V 8.017542 h 1.080382 v 1.1024305 z m 0,-1.1024305 V 6.9095993 h 1.080382 V 8.017542 Z m 0,-1.1079427 V 5.8016565 h 1.080382 v 1.1079428 z m 0,-1.1079428 V 4.7212746 h 1.080382 V 5.8016565 Z M 24.25774,4.7212746 V 3.6133319 h 1.107943 v 1.1079427 z m 1.107943,8.7973954 v 1.091407 H 24.25774 V 13.51867 Z m -1.107943,0 v -1.080381 h 1.107943 V 13.51867 Z M 23.15531,4.7212746 V 3.6133319 h 1.10243 v 1.1079427 z m 1.10243,8.7973954 v 1.091407 H 23.15531 V 13.51867 Z m -1.10243,0 v -1.080381 h 1.10243 V 13.51867 Z M 22.047367,4.7212746 V 3.6133319 h 1.107943 v 1.1079427 z m 0,8.7973954 v -1.080381 h 1.107943 v 1.080381 z m 0,-1.080381 v -1.107943 h 1.107943 v 1.107943 z m 0,-1.107943 v -1.102431 h 1.107943 v 1.102431 z m 0,-1.102431 V 9.1199725 h 1.107943 v 1.1079425 z m 0,-1.1079425 V 8.017542 h 1.107943 v 1.1024305 z m 0,-1.1024305 V 6.9095993 H 23.15531 V 8.017542 Z m 0,-1.1079427 V 5.8016565 h 1.107943 v 1.1079428 z m 0,-1.1079428 V 4.7212746 h 1.107943 v 1.0803819 z"/>
    </g>
  </g>
  <g>
    <g>
      <path style="fill:#888;fill-opacity:1" d="m 22.051901,13.518669 v 1.091406 h -1.085894 v -1.091406 z m -1.085894,0 v -1.080382 h 1.085894 v 1.080382 z m 0,-1.080382 v -1.107943 h 1.085894 v 1.107943 z m 0,-1.107943 v -1.102431 h 1.085894 v 1.102431 z m 0,-1.102431 V 9.1199706 h 1.085894 v 1.1079424 z m 0,-1.1079424 V 8.0175401 h 1.085894 v 1.1024305 z m 0,-1.1024305 V 6.9095974 h 1.085894 v 1.1079427 z m 0,-1.1079427 V 5.8016546 h 1.085894 v 1.1079428 z m 0,-1.1079428 V 4.7212727 h 1.085894 V 5.8016546 Z M 19.863577,4.7212727 V 3.61333 h 1.10243 v 1.1079427 z m 1.10243,8.7973963 v 1.091406 h -1.10243 v -1.091406 z m -1.10243,0 v -1.080382 h 1.10243 v 1.080382 z m 0,-1.080382 v -1.107943 h 1.10243 v 1.107943 z m 0,-1.107943 v -1.102431 h 1.10243 v 1.102431 z m 0,-1.102431 V 9.1199706 h 1.10243 v 1.1079424 z m 0,-1.1079424 V 8.0175401 h 1.10243 v 1.1024305 z m 0,-1.1024305 V 6.9095974 h 1.10243 v 1.1079427 z m 0,-1.1079427 V 5.8016546 h 1.10243 v 1.1079428 z m 0,-1.1079428 V 4.7212727 h 1.10243 V 5.8016546 Z M 18.755634,4.7212727 V 3.61333 h 1.107943 v 1.1079427 z m 1.107943,8.7973963 v 1.091406 h -1.107943 v -1.091406 z m -1.107943,0 v -1.080382 h 1.107943 v 1.080382 z M 17.653203,4.7212727 V 3.61333 h 1.102431 v 1.1079427 z m 1.102431,8.7973963 v 1.091406 h -1.102431 v -1.091406 z m -1.102431,0 v -1.080382 h 1.102431 v 1.080382 z M 16.545261,4.7212727 V 3.61333 h 1.107942 v 1.1079427 z m 0,8.7973963 v -1.080382 h 1.107942 v 1.080382 z m 0,-1.080382 v -1.107943 h 1.107942 v 1.107943 z m 0,-1.107943 v -1.102431 h 1.107942 v 1.102431 z m 0,-3.3128039 V 6.9095974 h 1.107942 v 1.1079427 z m 0,-1.1079427 V 5.8016546 h 1.107942 v 1.1079428 z m 0,-1.1079428 V 4.7212727 h 1.107942 v 1.0803819 z m 0,7.7170144 v 1.091406 h -1.107943 v -1.091406 z m -1.107943,0 v -1.080382 h 1.107943 v 1.080382 z m 0,-1.080382 v -1.107943 h 1.107943 v 1.107943 z m 0,-1.107943 v -1.102431 h 1.107943 v 1.102431 z m 0,-1.102431 V 9.1199706 h 1.107943 v 1.1079424 z m 0,-3.3183156 V 5.8016546 h 1.107943 v 1.1079428 z m 0,-1.1079428 V 4.7212727 h 1.107943 V 5.8016546 Z M 14.356936,4.7212727 V 3.61333 h 1.080382 v 1.1079427 z m 1.080382,8.7973963 v 1.091406 h -1.080382 v -1.091406 z m -1.080382,0 v -1.080382 h 1.080382 v 1.080382 z m 0,-1.080382 v -1.107943 h 1.080382 v 1.107943 z m 0,-1.107943 v -1.102431 h 1.080382 v 1.102431 z m 0,-1.102431 V 9.1199706 h 1.080382 v 1.1079424 z m 0,-1.1079424 V 8.0175401 h 1.080382 v 1.1024305 z m 0,-3.318316 V 4.7212727 h 1.080382 V 5.8016546 Z M 13.248993,4.7212727 V 3.61333 h 1.107943 v 1.1079427 z m 1.107943,8.7973963 v 1.091406 h -1.107943 v -1.091406 z m -1.107943,0 v -1.080382 h 1.107943 v 1.080382 z M 12.146563,4.7212727 V 3.61333 h 1.10243 v 1.1079427 z m 1.10243,8.7973963 v 1.091406 h -1.10243 v -1.091406 z m -1.10243,0 v -1.080382 h 1.10243 v 1.080382 z M 11.03862,4.7212727 V 3.61333 h 1.107943 v 1.1079427 z m 0,8.7973963 v -1.080382 h 1.107943 v 1.080382 z m 0,-1.080382 v -1.107943 h 1.107943 v 1.107943 z m 0,-1.107943 v -1.102431 h 1.107943 v 1.102431 z m 0,-1.102431 V 9.1199706 h 1.107943 v 1.1079424 z m 0,-1.1079424 V 8.0175401 h 1.107943 v 1.1024305 z m 0,-1.1024305 V 6.9095974 h 1.107943 v 1.1079427 z m 0,-1.1079427 V 5.8016546 h 1.107943 v 1.1079428 z m 0,-1.1079428 V 4.7212727 h 1.107943 v 1.0803819 z"/>
    </g>
  </g>
  <g transform="translate(0,-280.06665)">
    <g>
      <path style="fill:#999;fill-opacity:1" d="m 11.029398,293.58781 v 1.0914 H 9.9435044 v -1.0914 z m -1.0858936,0 v -1.08039 h 1.0858936 v 1.08039 z m 0,-1.08039 v -1.10794 h 1.0858936 v 1.10794 z m 0,-1.10794 v -1.10243 h 1.0858936 v 1.10243 z m 0,-1.10243 v -1.10794 h 1.0858936 v 1.10794 z m 0,-1.10794 v -1.10243 h 1.0858936 v 1.10243 z m 0,-1.10243 v -1.10795 h 1.0858936 v 1.10795 z m 0,-1.10795 v -1.10794 h 1.0858936 v 1.10794 z m 0,6.60908 v 1.0914 H 8.8410738 v -1.0914 z m -1.1024306,0 v -1.08039 h 1.1024306 v 1.08039 z m 0,-1.08039 v -1.10794 h 1.1024306 v 1.10794 z m 0,-1.10794 v -1.10243 h 1.1024306 v 1.10243 z m 0,-1.10243 v -1.10794 h 1.1024306 v 1.10794 z m 0,-1.10794 v -1.10243 h 1.1024306 v 1.10243 z m 0,-1.10243 v -1.10795 h 1.1024306 v 1.10795 z m 0,-1.10795 v -1.10794 h 1.1024306 v 1.10794 z m 0,-1.10794 v -1.08038 h 1.1024306 v 1.08038 z m -1.1079427,-1.08038 v -1.10794 h 1.1079427 v 1.10794 z m 1.1079427,8.7974 v 1.0914 H 7.7331311 v -1.0914 z m -1.1079427,0 v -1.08039 h 1.1079427 v 1.08039 z m 0,-7.71702 v -1.08038 h 1.1079427 v 1.08038 z m -1.1024306,-1.08038 v -1.10794 h 1.1024306 v 1.10794 z m 1.1024306,8.7974 v 1.0914 H 6.6307005 v -1.0914 z m -1.1024306,0 v -1.08039 h 1.1024306 v 1.08039 z m -1.1079427,-8.7974 v -1.10794 h 1.1079427 v 1.10794 z m 0,8.7974 v -1.08039 h 1.1079427 v 1.08039 z m 0,-1.08039 v -1.10794 h 1.1079427 v 1.10794 z m 0,-1.10794 v -1.10243 h 1.1079427 v 1.10243 z m 0,-2.21037 v -1.10243 h 1.1079427 v 1.10243 z m 0,-1.10243 v -1.10795 h 1.1079427 v 1.10795 z m 0,-1.10795 v -1.10794 h 1.1079427 v 1.10794 z m -1.1079427,-2.18832 v -1.10794 h 1.1079427 v 1.10794 z m 1.1079427,8.7974 v 1.0914 H 4.4148151 v -1.0914 z m -1.1079427,0 v -1.08039 h 1.1079427 v 1.08039 z m 0,-1.08039 v -1.10794 h 1.1079427 v 1.10794 z m 0,-1.10794 v -1.10243 h 1.1079427 v 1.10243 z m 0,-2.21037 v -1.10243 h 1.1079427 v 1.10243 z m 0,-1.10243 v -1.10795 h 1.1079427 v 1.10795 z m 0,-1.10795 v -1.10794 h 1.1079427 v 1.10794 z m -1.0803819,-2.18832 v -1.10794 h 1.0803819 v 1.10794 z m 1.0803819,8.7974 v 1.0914 H 3.3344332 v -1.0914 z m -1.0803819,0 v -1.08039 h 1.0803819 v 1.08039 z m 0,-1.08039 v -1.10794 h 1.0803819 v 1.10794 z m 0,-1.10794 v -1.10243 h 1.0803819 v 1.10243 z m 0,-2.21037 v -1.10243 h 1.0803819 v 1.10243 z m 0,-1.10243 v -1.10795 h 1.0803819 v 1.10795 z m 0,-1.10795 v -1.10794 h 1.0803819 v 1.10794 z m -1.1079427,-2.18832 v -1.10794 h 1.1079427 v 1.10794 z m 1.1079427,8.7974 v 1.0914 H 2.2264905 v -1.0914 z m -1.1079427,0 v -1.08039 h 1.1079427 v 1.08039 z m -1.1024306,-8.7974 v -1.10794 h 1.1024306 v 1.10794 z m 1.1024306,8.7974 v 1.0914 H 1.1240599 v -1.0914 z m -1.1024306,0 v -1.08039 h 1.1024306 v 1.08039 z m 0,-7.71702 v -1.08038 h 1.1024306 v 1.08038 z m -1.10794271,7.71702 v -1.08039 H 1.1240599 v 1.08039 z m 0,-1.08039 v -1.10794 H 1.1240599 v 1.10794 z m 0,-1.10794 v -1.10243 H 1.1240599 v 1.10243 z m 0,-1.10243 v -1.10794 H 1.1240599 v 1.10794 z m 0,-1.10794 v -1.10243 H 1.1240599 v 1.10243 z m 0,-1.10243 v -1.10795 H 1.1240599 v 1.10795 z m 0,-1.10795 v -1.10794 H 1.1240599 v 1.10794 z m 0,-1.10794 v -1.08038 H 1.1240599 v 1.08038 z"/>
    </g>
  </g>
</svg>
